<?xml version="1.0"?><svg version="1.2" baseProfile="tiny-ps" viewBox="0 0 300 300" xmlns="http://www.w3.org/2000/svg" xmlns:xlink="http://www.w3.org/1999/xlink"><title>logo</title><g><g fill="#f8f4dc" transform="matrix(.1 0 0 -.1 0 300)"><path d="M10 1500V0h2990v3000H10V1500z"/></g><g fill="#eddea7" transform="matrix(.1 0 0 -.1 0 300)"><path d="M10 1500V0h2990v3000H10V1500zm1211 1160 19-11v-52l-37 6c-20 4-40 10-46 16l-9 9 11 21 12 21h15c8 0 24-5 35-10zm609-70c0-6-7-13-15-17l-16-5-7 6-6 7 14 9c20 13 30 12 30 0zm-427-17c-7-2-19-2-25 0l-13 5h50l-12-5zm-339-53c14-5 26-14 26-20v-10h-24c-13 0-32 3-40 6l-17 6 12 14c14 17 11 16 43 4zm-175-59c14-9 27-23 29-29l4-12h-15c-8 0-26 9-40 20l-26 20-3-20-3-19-14 8-14 9 7 26 7 27 22-6c12-4 33-14 46-24zm755-41c37-12 66-23 64-26-3-2-24 3-48 11s-85 20-137 27l-93 11-96-12-97-11-71-31c-138-60-223-135-300-264-45-75-47-64-4 18l33 61 62 62 62 62 53 30c70 40 148 70 211 82l52 9 120-4 121-4 68-21zm-654-6v-14h-20c-22 0-26 10-8 28 13 13 28 7 28-14zm-285-55c-4-5-19-9-36-9h-29v10c0 5 8 13 17 19l17 9 19-9 18-10-6-10zm669 9c-12-37-6-62 31-128 19-34 38-74 41-89l5-26-33 56c-18 31-44 70-58 88l-25 32-29 5-28 5-44-17-44-17v-20l-7 6-7 7 35 36c40 41 80 65 129 75 19 4 36 7 38 8 2 0 0-9-4-21zm414-7c31-16 66-37 77-46s-16 3-60 26c-87 46-92 49-81 49 3 0 32-13 64-29zm-203-2 45-21 28-42 28-41 34-12 35-12h82l81-1-6-22-5-22 34-29 34-29-20 5c-11 3-47 16-80 27l-59 22-56-1c-30 0-95-7-144-16-49-8-91-13-93-11s4 9 13 17l17 14 45-2 46-2 18 10c26 14 22 30-19 78l-36 43-31-5-31-5-60 12-60 12-3 27-3 27h121l45-21zm-778-15c-3-3-12-4-19-1l-13 5 19 1c11 1 17-2 13-5zm1213-70c0-2-9 0-20 6s-20 13-20 16c0 2 9 0 20-6s20-13 20-16zm-19-69v-10l-26-3-25-3v32l25-3 26-3v-10zm-753-77c35-16 82-41 103-55l39-26 27 12c14 6 28 10 31 7 9-9-7-36-22-36s-201 93-248 124l-28 18v32l16-23 17-24 65-29zm-487 35 14-18-17 14c-10 7-18 15-18 17 0 8 8 3 21-13zm-71-28 12-15h-52v8c0 24 23 28 40 7zm1438-43 14-22-8 1c-5 0-22 17-39 37l-30 37 24-16c14-8 31-25 39-37zm-1061 22 4-11-22-6-22-6-19 10-19 10 7 10 6 10 31-3 30-3 4-11zm213-84c6-11 14-40 19-65l8-45-7 5c-4 3-13 25-19 50l-11 46-17 6-16 6-29-33-28-34v15c0 9 11 28 25 43l24 26h40l11-20zm-715-10 6-10h-52l6 10c3 6 12 10 20 10s17-4 20-10zm1520-30 6-10h-62l6 10c3 6 15 10 25 10s22-4 25-10zm-1127-36 44-26-10-10-11-11-32 27-33 28-23-5-23-4v27h22c12 0 41-12 66-26zm-268-22 25-15-15-5c-8-3-18-10-22-16l-7-10-21 19c-12 11-26 28-31 38l-10 18 28-7c15-3 39-13 53-22zm577-46c57-28 82-53 85-86l3-23-35-9c-19-5-45-19-57-31l-23-20v-67h-8c-15 0-32 24-32 47v23l33 13c38 16 53 33 62 68l6 25-25 12-25 11-131 12-130 13 31 20 32 20 41 6 41 6 42-8c23-4 64-18 90-32zm-647-1 12-15h-35c-19 0-49-3-66-6l-31-6v10c0 13 45 30 81 31l27 1 12-15zm167-57-4-23v90l4-22c2-13 2-33 0-45zm1281 45 4-13h-21c-21 0-35 13-24 24 10 10 36 3 41-11zm-127-3c10-6 19-15 19-20v-10h-70v40h16c8 0 24-5 35-10zm-697-68 5-9h-28l5 9c3 4 7 8 9 8s6-4 9-8zm774-29 4-13h-52v8c0 24 40 28 48 5zm-1221-25-5-13-1 19c-1 11 2 17 5 13 3-3 4-12 1-19zm1068 12c-3-5-14-10-23-10h-17l15 10c8 5 19 10 23 10h8l-6-10zm-830-10 6-10-15 6c-18 7-21 14-7 14 6 0 13-4 16-10zm135-31v-19h-30v18c0 10 3 22 6 25 11 10 24-3 24-24zm-299-166c13-21 50-67 83-103l60-65-66 64-67 64-35 71-35 71-6 40-6 40 24-72c14-39 35-89 48-110zm110 160 14-18-20 15c-11 8-22 16-24 17-2 2 0 3 6 3s17-8 24-17zm109-27c0-7 10-21 23-30l22-17-40 22c-22 12-53 25-70 29l-30 8 48 1 47 1v-14zm-510-11 12-15-17-6-16-7-25 12-25 11 6 10c3 6 17 10 29 10h24l12-15zm697-31c-3-3-12-4-19-1l-13 5 19 1c11 1 17-2 13-5zm567-23 6-9-18-4c-9-3-23-3-31 0l-13 4 13 9c18 11 36 11 43 0zm-1095-30 15-10-30-7c-27-7-64-7-73 1-1 2 0 8 4 14l6 11h32c18 0 39-4 46-9zm331 5c0-2-7-7-16-10l-15-6 6 10c6 10 25 14 25 6zm264-31 5-15-9-25-10-25h-50v14c0 16 38 66 50 66 4 0 10-7 14-15zm619-42c-7-2-21-2-30 0l-18 5h60l-12-5zm-93-18c-25-7-57-18-72-24-44-17-32-2 15 19l42 20 30-1 30-1-45-13zm-451-83 21-52-27 17c-15 10-35 25-44 34l-16 16 16 26 15 27 7-8c4-4 17-31 28-60zm-378-49 14-18-17 14c-17 13-22 21-14 21 2 0 10-8 17-17zm74-48 20-16-20 10c-11 5-29 17-40 26l-20 16 20-10c11-5 29-17 40-26zm-725 6c15-29 13-31-21-31-17 0-39-5-50-10l-19-11v29c0 37 6 42 46 42h33l11-19zm790-36c14-8 21-14 15-14-5 0-21 6-35 14s-20 14-15 14c6 0 21-6 35-14zm-931-31c12-15 21-31 21-36v-9l-15 14-15 15-40 7c-55 9-54 35 1 35h28l20-26zm287 1 13-20h-99v11c0 5 6 16 12 22l13 13 24-3 24-3 13-20zm354-11c0-2-9-4-21-4h-20l6 10 6 9 14-6c8-3 15-7 15-9zm377 10c-3-3-12-4-19-1l-13 5 19 1c11 1 17-2 13-5zm206-21c-24-2-62-2-85 0l-43 4h170l-42-4zM451 1139c35-16 56-28 47-25-10 3-39 8-65 11l-48 6-47-14-48-15v12c0 6 7 22 16 34l15 22h66l64-31zm-255-15 19-16-18 6c-10 3-34 6-53 6h-35l6 10 6 10h55l20-16z"/></g><g fill="#c4ae7c" transform="matrix(.1 0 0 -.1 0 300)"><path d="M10 1500V0h2990v3000H10V1500zm1220 1156 12-15-4-23-3-23-28-3-28-3-15 12c-30 24-9 69 32 69h22l12-14zm605-66-6-10h34l-7-7c-9-9-76-12-76-3 0 13 25 30 43 30h18l-6-10zm-415-20c0-4-15-10-34-12l-34-4 5 13c8 21 63 24 63 3zm183 13c-7-2-19-2-25 0l-13 5h50l-12-5zm70 0c-7-2-19-2-25 0l-13 5h50l-12-5zm-175-55c-46-46-57-52-38-21 10 16 68 63 78 63 1 0-17-19-40-42zm335 5c-7-2-19-2-25 0l-13 5h50l-12-5zm-762-13 19-11v-41l-32 6c-18 3-37 11-42 16l-9 9 13 16c15 18 24 19 51 5zm192-5c-3-9-8-14-10-11-3 3-2 9 2 15 9 16 15 13 8-4zm332 5c-3-5-10-10-16-10-5 0-9 5-9 10 0 6 7 10 16 10h15l-6-10zm-190-10c-3-5-11-10-16-10h-10l6 10c3 6 11 10 16 10h10l-6-10zm-527-40c18-11 35-27 39-36l6-15-12-12-11-11-26 25-27 24 6-18 7-18-23 3-22 3-3 38-3 37h18c10 0 33-9 51-20zm786-54c87-29 183-80 231-121 35-31 21-25-53 23-74 47-175 88-252 102l-65 13-106-1h-105l-62-16c-203-52-358-196-428-398l-25-73-1-90-1-90 18-65c9-36 31-92 48-125l31-60 71-70 71-70 64-38c36-21 97-48 135-60l70-22h115c63 0 133 3 155 8l40 7-20-12-20-13h-300l-76 31c-42 17-108 52-147 78l-70 46-54 58-53 58-33 67-33 66-14 68c-19 87-19 170 0 257l14 68 38 77 38 76 70 70 70 70 70 36c67 35 140 62 195 73 14 2 86 3 160 2l135-3 79-27zm-671 3c3-11 3-27 0-35l-5-14h-48v17c0 17 27 53 40 53 4 0 10-9 13-21zm-293-44 12-14-7-11-6-10h-59v39l18 4c9 3 20 5 23 6 4 0 12-6 19-14zm682 3-12-12v-59l40-72 40-73 9-47 9-47-7-26-7-27-22-3-22-3-32 26c-33 28-106 67-148 80-14 4-37 16-52 27l-28 19v62l25 42 24 42 38 28 37 29 46 12c25 7 52 13 60 13l14 1-12-12zm208-21 45-22 23-35c13-19 35-41 50-49l27-15 93-4 93-4-6-19-6-19 25-25c14-14 32-25 41-25h15v-14c0-18-38-46-62-46h-17l5 14 5 14-9 6c-9 5-47 7-164 6-26 0-65 2-85 5-21 2-64 1-95-4l-58-8v36l26 20 27 21h95l12 15 12 14-33 41-32 40h-54l-18-20-18-20h-64l-20 23c-11 12-24 32-27 44l-7 22 11 21 11 20 57-6 57-6 45-21zm287 27c-3-3-12-4-19-1l-13 5 19 1c11 1 17-2 13-5zm-1007-44 15-10-37-1c-21-1-43-2-50-3-6-1-13 5-15 12l-5 12h39c21 0 45-5 53-10zm1118-44c26-14 63-39 82-56l35-31-36 25c-20 15-60 40-90 56-65 36-58 40 9 6zm-1177-98c15-28 5-21-21 15l-24 32 18-14c9-8 22-23 27-33zm809 32c0-5-4-10-9-10-6 0-13 5-16 10l-6 10h15c9 0 16-4 16-10zm-967-17c-7-2-19-2-25 0l-13 5h50l-12-5zm1355-13 3-16-23-1c-12-1-28 3-35 9l-13 10 6 10 6 9 26-3 27-3 3-15zm-1281-10c17-10 37-29 43-42l12-23-24 27c-12 14-36 33-53 42-16 8-25 15-20 16 6 0 24-9 42-20zm1483-103c0-6-10 3-22 19-37 50-41 60-9 24 17-19 31-38 31-43zm-1513 48c8-22-2-28-32-21l-27 7 12 14c16 19 39 19 47 0zm1448-63c19-26 34-51 34-57 0-10-53 48-91 99l-21 28 22-11c12-7 37-33 56-59zm-1074 42 13-16-15-9c-8-5-25-9-39-9s-31 4-39 9l-15 9 13 16 13 16h56l13-16zm609-30c0-3-17-12-37-21-21-8-51-24-68-36l-30-20 26 27 26 27 39 14c47 17 44 16 44 9zm-396-62c8-15 17-50 21-77l7-50-10 10c-6 6-16 35-24 65l-13 55-17 3-17 3-21-33c-11-18-22-37-24-43l-3-10-8 7-7 6 6 20c4 11 16 32 27 46l20 26h48l15-28zm-716-10 4-14-23 4-22 3-5 13-4 14 23-4 22-3 5-13zm1518-23 7-11-14-9c-18-11-30-11-48 0l-14 9 7 11 7 11h48l7-11zm-1122-35 38-26-10-10-11-11-31 27-32 26h-41l7-52 6-53-15 34c-16 35-20 73-8 84 3 4 18 7 32 7h26l39-26zm-269-26 20-20-12-5-12-4 7-17 6-17-29 19c-34 20-65 53-65 68v10l33-7 32-7 20-20zm558-35 58-26 25-30 25-30-3-25-3-25-46-13c-26-8-52-20-58-28l-13-15 4-22 3-22 48-14c26-7 47-16 47-19 0-4-8-3-17 1-10 4-44 8-75 9-32 2-60 5-62 7-3 3 1 22 8 43l14 39 32 17 32 17 14 33c8 18 12 35 10 37-2 3-23 7-45 10l-41 6-20-18-20-18v-107h-48l-6 33c-3 18-13 43-22 56l-16 23-47-5c-25-3-58-8-73-12l-28-7v30l51 46 50 45 42 10 42 10 40-5c22-3 66-17 98-31zm-619-12 17-19-46 5-45 6v-11c0-6 8-12 18-14l17-4-31-5-32-5-22 18-22 18 33 15c19 8 48 14 65 15h31l17-19zm1436-17v-26l-27 7c-16 4-30 8-32 11-8 8 22 34 40 34h19v-26zm-118-6 23-23-20-3c-11-2-25-8-31-13l-11-9-10 12c-15 19-22 45-16 52 4 3 15 6 25 6h18l22-22zm-492-72c0-12-5-7-19 24l-12 25 15-19c9-11 16-24 16-30zm-210 5c0-11-5-23-11-27l-11-6-10 10-11 11 13 16c17 21 30 19 30-4zm900-11v-20h-17c-10 0-24 4-32 9l-14 9 7 11 7 11h49v-20zm-494-124c8-38 13-70 11-73-8-8-25 24-36 71l-12 48 8 47 8 46 3-35c1-19 9-66 18-104zm362 117 4-13h-52v8c0 24 40 28 48 5zm-105-1c3-4-3-17-13-30l-18-22-48 2-47 1 32 29 31 28h30c16 0 31-3 33-8zm-868-22c3-5 4-14 0-20l-6-9-14 6c-8 3-15 11-15 19v14h14c8 0 18-4 21-10zm-61-35 20-15h74l31-31c17-17 31-32 31-35 0-2-14-4-30-4h-30l-10 25-10 25h-20c-21 0-100 36-100 45 0 10 26 4 44-10zm609-60 6-70-9 25c-8 24-14 127-6 119 2-2 6-35 9-74zm-187 57 12-7-72-1-71-1 35 7c49 10 83 11 96 2zm340-30-18-17 12 23c6 13 14 21 18 18 3-4-2-14-12-24zm-1175 8 19-11v-39h-22c-13 0-33 3-45 6l-23 6v14c0 12 26 33 43 34 5 0 17-5 28-10zm756-16c-3-3-12-4-19-1l-13 5 19 1c11 1 17-2 13-5zm50-10c-3-3-12-4-19-1l-13 5 19 1c11 1 17-2 13-5zm40-10c-3-3-12-4-19-1l-13 5 19 1c11 1 17-2 13-5zm427-30c9-3 16-12 16-20v-14h-80v8c0 24 34 38 64 26zm-914-8c0-2-7-7-16-10l-15-6 6 10c6 10 25 14 25 6zm461-17 24-20-30 17c-39 24-40 24-28 24 6 0 21-9 34-21zm-371 6c0-2-15-12-32-20l-33-16 25 20c24 20 40 26 40 16zm-261-19 12-14-17-6c-24-9-63-7-85 5l-20 10 6 10 6 9h87l11-14zm306 2c-11-6-31-20-45-32l-26-21 33 33c18 17 38 32 45 32l13-1-20-11zm141-15c-11-11-35-12-42-2l-5 9h54l-7-7zm139-12 6-18-10-24c-5-13-18-32-29-43l-21-18-89 7c-49 4-94 10-101 15l-13 7 49-4 48-5 36 16 36 15 29 35c16 19 34 35 41 35l12 1 6-19zm-675-46c-14-16-50-21-50-6 0 11 18 19 44 20l18 1-12-15zm1260-1c-30-8-89-31-130-51s-78-39-82-41c-5-2-8 1-8 6s21 24 47 42l47 34 45 12c26 7 66 13 91 13l45-1-55-14zm-501-107c36-98 29-106-42-51l-47 37v15c0 9 10 31 22 49l23 32 11-12c7-7 21-38 33-70zm-1036-79c9-11 17-28 17-37v-17l-37-2-37-3-7-10-6-10-10 13c-6 7-14 23-17 35l-7 22 21 21 21 21 22-6c12-4 30-16 40-27zm555 5c-10-2-28-2-40 0l-23 4h40l40 1-17-5zm-102-18c-21-7-43-18-49-24s-16-11-21-11c-6 0 7 12 29 25 22 14 49 25 60 25l20-1-39-14zm-599-47c13-12 23-29 23-37v-16l-27-1c-16 0-39-3-53-5l-24-4-10 27-9 27 13 15 12 16h52l23-22zm287 6 16-15-1-27c0-15-2-22-5-17l-4 10-45-3-45-4v20c0 11 3 27 6 36l6 16h57l15-16zm356-19 12-15h-62v8c0 25 32 29 50 7zm84-34 6-9-15 2c-8 1-18 5-21 9l-7 7h16c9 0 18-4 21-9zm106-11v-10h-41l6 10c3 6 13 10 21 10s14-4 14-10zm-643-61c75-29 93-42 93-64-1-5-5-2-11 8l-10 18-19-6c-11-3-43-10-72-16-58-10-60-11-101-27l-28-12-14-32c-19-44-18-28 4 56l18 70 23 18c29 23 26 23 117-13zm1330-15 6-16-17-16-16-16-16 16-17 16 6 16 6 16h42l6-16zm-1583 0c9-4 21-15 27-26l11-20-10 6-10 6-47-9-47-9-5 14-5 14 12 15 12 15h23c13 0 31-3 39-6zm1944-95 27-1-25-7-25-7-3-99-3-100 22-17 21-18h-72l-11 28-10 27 2 85 3 85-29 6-30 7 28 1 27 1v78l23 15 22 15 3-49 3-49 27-1zm-203 34v-48l25-4 25-4-25-6-25-7-3-84c-2-47 0-95 3-108l6-23 22-9 22-9h-37l-37-1-11 19-10 20v182l-22 8-22 8 23 6 23 6-4 30-3 30 20 20c11 11 22 20 25 20 3 1 5-20 5-46zm-448 19-17-19v-62l16-16c9-9 39-27 68-41 28-15 61-35 73-46l22-21 6-28 6-29-6-20-7-21-23 25c-13 14-28 32-32 39-4 8-40 35-80 62l-72 47-9 27-10 27 13 31c7 17 23 38 36 47 31 21 36 20 16-2zm157 3c2-5 0-17-3-26l-6-16-21 26-21 26h47l4-10zm966-17v-20l-22 6c-13 3-26 6-30 6-16 0-7 17 15 27 27 13 37 8 37-19zm-78-83-4-70 10-38c6-20 7-37 4-37-4 0-17-3-29-6l-22-6-3 121-3 120 20 9 20 9 6-15c3-9 4-48 1-87zm-148 43 26-23 2-25 3-25-25-3-25-3-1 31-1 30-18 20-18 20h16c9 0 27-10 41-22zm-129-18-15-30 3-62 4-61 28-25 28-24 39 6c50 8 49 0-2-14l-39-11-35 15-36 15-20 33-20 33v66l15 29c12 24 50 60 62 60 2 0-3-13-12-30zm-967-91 27-1-30-8c-16-4-52-8-80-8h-50l25 7 25 7 3 33 3 34 22 18 22 17 3-49 3-49 27-1zm-516 71 37-11 16-22 15-21v-71l-9 13c-4 8-11 13-15 13-19-3-24 3-35 39l-12 40-27 14c-32 18-21 20 30 6zm-156-16c-3-9-6-24-6-35v-19h-50v19c0 11-6 23-12 28l-13 8 30 6c17 4 36 7 44 8l13 1-6-16zm1164-33v-49l-20 5c-11 3-20 6-20 7s-4 16-9 34l-10 33 22 9c12 5 25 9 30 9l7 1v-49zm-668-79 13-15-32 17c-18 9-33 18-33 20 0 9 41-8 52-22zm323-131 20-24-22 12-23 12v16c0 9 1 14 3 12 1-2 11-15 22-28zm-362-88c-7-2-21-2-30 0l-18 5h60l-12-5zm244-165-5-13v50l5-12c2-7 2-19 0-25zm-100-10-5-13v50l5-12c2-7 2-19 0-25zm60 10-5-13-1 19c-1 11 2 17 5 13 3-3 4-12 1-19zm-142-26c-3-3-11 0-18 7l-12 12 18-7c10-3 15-9 12-12zm103 1822-28-15-15-29c-30-57-22-66 117-138l96-50 22 15 22 16-5 34-6 33-35 58-35 57-29 18c-36 21-68 21-104 1z"/></g><g fill="#977d50" transform="matrix(.1 0 0 -.1 0 300)"><path d="M10 1500V0h2990v3000H10V1500zm1203 1169c44-24 48-51 12-75l-26-17-24 11-25 12v49l16 15c18 19 19 19 47 5zm494-91 33-10 15-21c8-12 15-26 15-31 0-6-7 0-16 13l-17 23-33 14-33 14h-94l-43-25-43-25-21-31c-12-16-25-28-27-25-10 10 28 56 68 83l40 26 37 7c39 8 65 5 119-12zm133 12c0-5 4-9 9-7 5 1 9-2 10-8l1-10-29-1c-15-1-33-4-40-8l-11-7v13c0 19 21 38 42 38h18v-10zm-436-6c9-3 16-12 16-19v-14l-27-3-26-3-5-14-5-14 32 6 31 7-10-20-11-20h-29l-16 25-16 25 16 25c17 26 24 29 50 19zm-144-83-20-41-40 26c-50 33-52 43-4 15 20-12 38-21 39-19s10 18 19 36c10 19 20 32 22 29 3-3-4-24-16-46zm580 39 15-10h-70l15 10c8 5 17 10 20 10s12-5 20-10zm-245-27c-21-15-30-10-22 11l6 16 17-7 17-6-18-14zm-509-9 17-26-14-9c-8-5-25-8-38-7l-24 3-10 16-10 16 6 17 6 16h51l16-26zm665-12c-7-2-18 1-23 6l-11 11 24-6 23-7-13-4zm-887-12 46-19 6-16c4-8 3-27-1-43l-7-27-26 30-26 30 7-17c4-10 10-25 13-33l6-15h-14c-7 0-24 7-36 16l-22 15v50c0 27 2 49 4 49s25-9 50-20zm1018-38 56-19 65-46c68-49 119-102 151-159 24-42 18-36-32 31-53 70-122 127-199 163l-61 29-64 8-63 8 46 2 46 1 55-18zm-279-7 68-14 92-44c86-41 164-94 153-104-2-3-24 8-48 25-59 40-131 76-208 102l-65 22-135 5-135 5-65-16c-36-9-99-33-140-54l-75-37-72-71-73-71-39-84c-21-46-44-108-51-138l-13-53 6-92 5-91 21-66 21-65 49-71 50-70 58-47 58-47 80-40 80-39 75-16 75-16 90 6 90 6 68 20c82 23 161 58 219 98 61 41 78 48 43 17-78-68-232-133-364-155l-75-12-72 6c-277 25-521 223-579 468l-15 63v160l15 64 15 64 37 70 37 71 54 57c88 96 209 165 327 189 22 4 92 8 155 9l115 1 68-15zm-609-11c10-26 7-48-10-72l-15-22-20 10-19 11v15c0 8 7 28 15 44l16 30h13c8 0 17-7 20-16zm881-35c59-17 29-21-35-5l-55 14 25 1c14 0 43-4 65-10zm-1170-29v-25l-31-3-31-3-6 15-6 15 16 16 15 16 22-3 21-3v-25zm672 0-12-31 48-92 47-92 6-42 7-43-13-30-12-30h-16c-8 0-31 12-50 28-19 15-76 47-126 72l-91 45-14 26-15 26 14 34c35 82 134 155 217 158l21 1-11-30zm201 9 27-9 50-55 50-55 60-10c33-6 84-10 114-10h53l-11-14-11-13 5-15c4-9 22-24 41-34l34-19v-38l-34-32-34-32-44-11c-23-6-80-14-126-17l-83-6-54-19c-29-10-65-26-79-35l-27-18-6 7-7 7 19 35c25 46 80 91 128 106 20 6 37 15 37 20v8h-98l-36-15-36-15v14c0 8-2 21-5 29l-6 14 20 24 19 24 64 5 63 5 3 20 3 20-35 34-35 34-26-7-27-7 5-13 6-14-24-22-24-22-23 5-23 6-27 43-28 42v52l13 13 12 13 58-7c33-3 71-11 85-16zm-701-30 12-10-20-20c-10-10-23-19-28-19-12 0-61 40-61 50 0 21 71 20 97-1zm1112-40 62-31 78-77 78-76 22-58c11-32 21-65 20-75l-1-17-15 45c-9 25-35 73-59 106l-43 61-51 43c-27 23-81 57-118 76l-67 34h16c9 0 44-14 78-31zm-1229-49c40-21 60-45 60-76v-17l-23 34c-12 18-38 44-56 56-42 28-33 30 19 3zm860-15 12-15h-10c-6 0-17 3-26 6l-16 6 6 9c8 13 20 11 34-6zm378-17 12-12-1-25-1-26-5 13-5 12h-49l-6 16-6 16 14 9c19 12 33 11 47-3zm-1295-12 33-13 27-32c15-18 27-40 27-49v-17l-19 31c-25 42-66 72-107 80l-33 6-31-10c-35-13-41-6-7 8 33 13 73 12 110-4zm-5-77 3-17-30-4-31-5v17c0 23 11 31 34 28l21-3 3-16zm360-5c12-8 22-22 22-29v-15l-25-6-25-6-25 6-25 6v41l23 9c30 12 30 12 55-6zm1064-16c34-37 72-109 83-155 3-18 5-33 3-33-3 0-19 29-36 63-18 35-48 82-67 104-19 23-35 44-35 47 0 15 25 3 52-26zm-1547-44 17-26-11 6c-11 7-35 46-28 46 3 0 12-12 22-26zm707-34 18-25 7-53 6-52h-22l-12 55c-7 30-17 59-23 65l-12 9-10-7c-6-4-19-22-28-39l-17-33h-14c-8 0-15 3-15 6 0 12 24 51 48 77l26 28 15-3c7-2 22-14 33-28zm-594-35c4-4-11 0-33 9-22 10-44 22-50 27-5 6 9 2 33-9 23-10 46-22 50-27zm-118 20v-15h-60v8c0 15 12 22 37 22h23v-15zm1527-30c7-21 2-25-41-32l-36-6v20c0 27 8 33 42 33h29l6-15zm-1146-21c14-7 31-20 39-29l13-15-7-7-7-7-17 12c-9 7-32 20-49 29l-33 17-7-7-7-7 16-65 15-65-7-5-8-5-16 47c-9 26-16 63-16 84v37l13 5c14 6 42-1 78-19zm-278-15c12-6 29-20 36-32l14-21-12-4-11-4 6-9c16-27-60 14-80 43-9 12-16 26-16 30 0 11 35 10 63-3zm1584-76-4-28v110l4-27c2-16 2-40 0-55zm-990 17 63-31 16-30 15-30-3-27-3-26-46-12c-26-6-51-14-56-17l-10-6 5-31 4-30h22c25 0 121-43 130-59l7-10-54 24c-30 14-65 25-78 24-59-1-92 1-96 4-2 3 2 25 9 50l12 46 28 10 28 10 20 33 20 32-8 7c-4 4-21 10-39 14l-32 6-26-26-26-26 2-47 3-47-25-3-26-3-17 44-17 44-25 12c-14 6-33 11-42 11-19 0-92-46-92-58 0-11 70-34 112-37l36-2 36-35c20-19 36-37 36-40s-29-20-65-37l-66-31-20-35c-12-19-23-35-25-35-24 0 57 97 92 110l22 9-16 35-16 36h-97l-30 16-31 16 7 36 6 37 29 40c34 48 63 71 116 91l39 14 54-4 54-5 64-31zm427 15c-10-8-23-14-29-14-5 0-1 6 9 14 11 8 24 15 30 15 5 0 1-7-10-15zm-1054-28 25-20-49 7-48 8 7-11 6-11h59v-19l-44-6-45-7-30 22c-17 12-31 25-31 30s21 16 48 23l47 14 15-5c8-3 26-14 40-25zm786-24c16-27 36-64 45-83s28-52 42-73 28-51 32-67c6-27 31-58 40-49 2 3-1 34-7 71l-12 66 10 23 11 23 11-120c6-65 14-130 18-144l6-25-20 24-19 24-15-5-15-6-22 71c-13 40-49 127-81 195-32 67-57 122-55 122s16-21 31-47zm644 28c14-27 13-37-6-55l-15-16-25 16c-29 20-30 28-4 54 25 25 37 25 50 1zm-118-18c24-22 23-36-6-49l-25-12-22 24-22 23 6 15 6 16h44l19-17zm-293-30-11-28 1-60c0-33 5-76 11-95l10-35-1-65-1-65-14 50c-16 55-54 238-54 259 0 19 39 66 55 66h15l-11-27zm-969-14c-13-6-33-17-42-26-10-9-18-13-18-9s10 16 23 27l22 18h40l-25-10zm563-23 6-15-15-12-15-12-11 11-11 11 6 15c8 20 33 21 40 2zm895-33-3-38-15-2-15-3-29 26-28 25 18 14 19 14 28 1h28l-3-37zm-125 13 6-14-32-5c-37-5-42-3-34 18l6 15h49l5-14zm203-23c-17-34-93-113-109-113-5 0 12 19 38 42l48 42 14 34c8 19 16 32 19 29s-1-18-10-34zm-311 19c6-4 10-14 10-22v-15l-23-13-23-13-30 6-30 7-29-12-29-12-18-27c-10-14-21-35-25-46l-6-20-1 25-1 26 16 22c8 12 39 40 67 62l52 39h30c17 1 35-3 40-7zm-1169-52v-50l-8 12c-9 15-10 50-2 72 3 9 7 16 8 16 0 0 1-23 2-50zm301 25 5-16-6-7-7-6-16 10c-9 6-19 16-21 22l-4 12h43l6-15zm373-35 15-10-80 1-80 1 30 8c44 11 98 11 115 0zm661-38 8-22h-58l-9 17-10 16 12 12 11 13 19-8 19-7 8-21zm-1496 8 17-19-6-17-6-17-41 6c-23 3-45 9-50 14l-9 9 16 22 15 22h46l18-20zm1385-6v-24h-11c-6 0-19 5-30 11l-20 10 10 13c5 6 19 12 30 13l21 2v-25zm-591-6c28-6 51-15 51-18v-7l-57 13c-32 7-67 14-78 17l-20 5 27 1c14 0 49-4 77-11zm-344-17c-6-4-39-18-75-30l-64-21 10 10c9 9 109 48 129 49l9 1-9-9zm5-35c-8-7-37-26-64-42l-50-28 8 12c7 11 104 72 116 72 2 0-2-6-10-14zm819-4 10-19-11-11-12-12h-57l-5 15-6 15 12 15 12 15h47l10-18zm-1109-17c17-9 30-20 30-25v-10H674l-12 12c-18 18-15 26 11 31 41 8 48 7 77-8zm466-15h15l-6-10-6-10h-69v9c0 12 21 21 38 15 8-2 20-4 28-4zm134-36v-23l-43-53-44-53-34 3c-19 1-62 12-97 23l-62 21-15 21c-22 32-18 37 15 21l30-15h108l31 15c16 9 42 32 57 51l27 35 13-11 14-11v-24zm833-19-58-55-60-34c-33-19-73-37-90-41l-30-6 49 21c66 28 142 80 191 129 21 23 43 41 47 41 5 0-17-25-49-55zm-712 3 22-33-31 29c-34 32-37 36-23 36 5 0 20-15 32-32zm-771 3c0-5-7-12-16-15l-15-6 6-9 5-10-11-7-12-7 7 11 7 12h-11c-6 0-15-11-19-24-5-13-17-26-25-29l-16-6v50l25 24 24 25h51v-9zm1274-10c-5-5-36-16-69-26-58-17-135-54-165-80-8-8-27-18-43-24l-27-11v9c0 15 87 89 131 111l42 22 66 7c70 7 80 6 65-8zm-1174-8v-18l-27-12c-34-16-40-10-19 22l16 25h30v-17zm1230-7c0-2-8-10-17-17l-18-14 14 18c13 16 21 21 21 13zm-607-79c14-35 29-80 33-101l7-39-29 7c-16 4-50 21-76 38l-46 32 10 25c12 33 58 101 68 101 4 0 19-28 33-63zm-533-57-55-7-42-21-41-21-26-33-26-33v11c0 17 76 83 114 100l31 13 50-1 50-1-55-7zm-505-35 25-24v-57l-12-12-12-12h-53l-16 18c-9 10-19 32-23 49l-6 30 17 16c9 10 25 17 36 17h20l24-25zm615-6 25-8-53 5-52 6-52-12-51-13-40-36-40-36 11 22c14 26 63 62 100 73 35 11 120 10 152-1zm-479-40c11-5 24-21 29-35l10-24-10-25-9-24-26-7-26-6-19 17-20 18v76l18 10c22 13 29 13 53 0zm-271-19c11-11 22-31 26-45l6-25-12-15-12-15h-59l-24 25-25 24v24c0 12 5 28 12 35l12 12h56l20-20zm640-10 15-10-15-10c-8-5-25-10-37-10h-23v13c0 27 31 36 60 17zm88-38 4-12h-21c-21 0-27 11-14 24 9 9 26 2 31-12zm106-11 6-9-25-4-25-5v7c0 19 34 28 44 11zm-621-70 67-31v-39l-22-15-22-16h-82l-20-15-21-14-7 7-7 6 6-16 6-16-23-16c-28-20-52-20-68-1l-13 16 18 76 18 76 20 20 19 19 32-5c17-3 61-19 99-36zm1291 13 16-6v-49l-16-6-17-6-15 10c-23 14-25 29-7 47 19 18 18 18 39 10zm379-107 27 2v-8c0-5-13-11-30-14l-30-6v-90c0-49 3-96 6-105l6-16h27l26-1-19-14c-26-20-55-19-78 2l-18 16v197h-50v9c0 5 10 11 23 13l22 3 1 32v33l25 26 24 26 5-54 5-53 28 2zm-1924 67c34-44 22-84-25-84h-22l-31 26-31 26v22c0 31 7 36 51 36h38l20-26zm1431-36-1-53-15 20c-43 59-71 73-118 61l-23-6-13-30-13-31 11-24 11-23 71-38 71-37 15-28 14-28v-69l-26-32c-30-35-79-64-97-56l-12 4 17 1 17 1 20 26 21 27v-27l16 16 16 15-26 52-26 51-53 30c-85 49-107 74-107 121v21l40 41 40 40 64-7 65-6 6 10c12 19 15 10 15-42zm316-55 25 4-4-11c-2-6-13-12-25-14l-22-3V802l14-11 13-11 19 6 19 6-19-16c-35-28-73-20-95 21l-11 22v171h-50v9c0 5 10 11 23 13l22 3 3 34 3 33 27 23 27 23 3-55 3-55 25 5zm-1238 51-4-19-6 28-6 29 10-10 10-10-4-18zm1890 8 3-22-15-6-16-6-15 12-14 12-11-7-10-6V877l17-19 16-18h-105l11 14 12 14-3 98-3 99-13-3-13-2 5 8c3 5 20 15 38 23l32 13 4-12 4-12 21 15c12 9 29 14 37 13l15-3 3-23zm-223-47 25-24v-49l-16-6c-9-3-32-6-52-5h-37l23 9 22 9v21c0 12-5 30-10 41l-11 19h-58l-15-22-16-22v-56l33-2 32-1-32-4-33-4v-30c0-17 4-39 10-49l10-18 29-10 30-10 23 5c13 4 34 13 48 22l25 16-14-18c-36-45-108-59-161-32l-30 15-15 30-15 29v93l39 39 39 39h103l24-25zm-1102-97c36 4 35-6-3-19l-30-11-2-61-2-62-3 58-4 58-19-6-18-6-6 9-6 9-25-5-25-4v21l23 3 22 3 3 35 3 36 27 16 27 17 5-47 5-47 28 3zm-485 47 30-25 5-32 4-33-8-20-8-20v13l-1 12h-40l-6 28c-12 55-16 63-39 78l-24 16-51-7-51-7 3-183 3-183-7 11-8 12v261l-30 11-30 11v43l-22 8-23 8 65 10c36 6 97 11 137 12l71 1 30-25zm970-87-2-113-3 58-4 57h-39v61l-17 6-17 7 40 17c21 10 40 18 42 18 1 1 1-50 0-111zm-668-18 25-19-7-7-8-7-15 13c-8 7-32 18-52 26l-38 13h35l35 1 25-20zm-100 6c0-2-7-7-16-10l-15-6 6 10c6 10 25 14 25 6zm-250-59c0-2-10-12-22-23l-23-19 19 23c18 21 26 27 26 19zm689-96c14-10 35-21 46-24l20-5-23-1c-30-1-78 24-86 44-3 9-6 29-5 43l1 27 11-33 10-33 26-18zm-749 49c-8-5-28-9-45-9l-30 2 35 7c51 11 57 11 40 0zm333 3c-7-2-21-2-30 0l-18 5h60l-12-5zm285-90c-6-7-14-13-17-13-4 0-15 6-24 13l-17 12h68l-10-12zm-281-27 22-7 48 20 48 21-29-24c-16-13-39-26-52-29l-23-4-30 14c-16 8-32 22-36 31l-6 16 18-16c10-9 28-19 40-22zm1385-53-5-28-5 13c-4 13 4 42 11 42 2 0 2-12-1-27zm-689 10c-7-2-21-2-30 0l-18 5h60l-12-5zm534-30-5-18v60l5-12c2-7 2-21 0-30zm-687 17c0-5-7-10-15-10s-15 5-15 10c0 6 7 10 15 10s15-4 15-10zm63 3c-7-2-21-2-30 0l-18 5h60l-12-5zm501-8-6-15 27-10c15-6 26-13 23-16-3-2-17 0-32 5l-26 11v13c0 12 9 27 16 27 2 0 1-7-2-15zm-74 1c0-3-4-8-10-11l-10-6v10c0 6 5 11 10 11 6 0 10-2 10-4zm277-28-5-13-1 19c-1 11 2 17 5 13 3-3 4-12 1-19zm-935-73 20-25 9 5 9 6v-45l-28 27-28 27-7-7-7-6v21c0 29 8 28 32-3zm-123-57c0-10-3-18-8-18h-9l-4 41c-2 22-1 42 2 45 5 6 17-36 19-68zm49 65c-19-5-23-15-11-26 9-9 11-57 2-57-10 0-19 28-19 61v29l23-1 22-1-17-5zm-101-10-17-4 7-41 6-41-11 7-12 7v58l-17 10-18 10h40l40-1-18-5zm-112-13-6-10 26-10 26-10-3-22-3-23-19-3c-10-2-22 0-28 6l-10 10 26-5 26-5v11c0 6-11 16-25 21l-25 10v13c0 8 3 17 7 20 10 10 15 8 8-3zm-52-35c9-20 17-38 17-40 0-11-37 18-37 29 0 6-4 19-8 29l-7 17h9c5 0 17-16 26-35zm-146-7-5-13v50l5-12c2-7 2-19 0-25zm43 14c0-10 6-24 13-31l12-13-14 4-15 4-7 27-7 27h9c5 0 9-8 9-18zm290 1831c-24-9-51-36-66-66l-15-27 11-21 12-21 65-29c36-16 78-38 94-50l29-20 21 3 22 3 7 20 8 21-13 37c-7 21-25 56-39 78l-27 40-32 19c-32 20-50 23-77 13zm598-220c7-3 16-2 19 1 4 3-2 6-13 5l-19-1 13-5zM168 1043c6-2 18-2 25 0l12 5h-50l13-5z"/></g><g fill="#625035" transform="matrix(.1 0 0 -.1 0 300)"><path d="M10 1500V0h2990v3000H10V1500zm1220 1160c24-24 25-43 4-64l-15-16h-49l-16 25-16 25 16 25 16 25h40l20-20zm448-71 50-10 22-24 22-23-4-19-3-18-23-3-22-3v23l15-5 14-6 6 9 6 10-24 24-24 24-47 7-46 7-37-7-38-7-48-50c-50-51-73-58-44-14 23 35 76 72 117 84 47 14 51 14 108 1zm173 1c10-6 19-15 19-19v-9l-45-4-45-3v16c0 30 33 39 71 19zm-434-11 10-10-6-31-6-31-16-10-16-10-16 6-16 6-7 26-6 26 17 19c20 22 45 26 62 9zm-156-78-21-40-54 32c-62 37-67 50-6 18 22-11 44-21 48-21 5 0 16 17 27 38l18 37 4-12c2-6-5-30-16-52zm588 35 12-14-16-6-16-6-21 11-21 11 14 9c20 12 35 11 48-5zm-242-13 4-11-17-6c-21-8-28-1-20 19l6 17 12-4c6-2 13-9 15-15zm-522-9 16-16-3-22-3-21-13 3c-6 1-12-2-12-8 0-19-29-10-49 16l-21 26 11 19 10 19h48l16-16zm-215-34 39-20 11-20 11-20-11-21-12-21-20 19-21 18 12-23c16-31 11-34-28-21l-31 11-11 20-11 19 7 40 7 39h9c6 0 27-9 49-20zm789-26c10-9-45-3-59 6l-15 10 35-6c19-4 37-8 39-10zm-44-20 70-16 90-44c90-45 153-90 141-101-3-3-29 9-58 28s-84 49-123 66l-70 32-84 17-85 17-110-6-111-6-48-15c-128-41-251-128-316-225-99-146-130-293-96-455l15-69 30-65 30-65 78-76 77-76 59-34c76-45 148-69 247-82l81-11 76 11c122 18 237 60 331 121 32 21 68 43 80 49l21 11-7-17c-4-10-11-22-17-26l-11-9 30 7c17 3 58 19 93 35l63 30 62 58c34 32 69 61 78 65l16 5 22 44 21 43v-15c0-8-9-29-19-47l-20-31 25-16 24-16v-56l-12-12c-7-7-22-12-34-12h-22l-12 15-12 15 7 17 7 18 9-23 9-23 20 11c23 12 26 30 8 48-21 21-38 14-94-37-30-27-78-63-107-79-53-30-174-68-184-58-3 3-18-3-33-14s-60-35-100-54l-73-35-94-22-94-22-102 6-102 5-58 21c-31 11-89 37-127 57l-71 37-67 62-67 63-33 54c-42 70-70 150-82 237l-10 69 11 83 10 83 30 71 29 70 44 59c100 133 246 218 421 247l50 8 90-5c50-3 122-12 160-20zm318-12 66-33 56-51c56-51 106-116 118-153l7-20-18 25c-79 112-159 186-247 226l-50 23-75 10-75 10 75-2 76-2 67-33zm-939 12c3-9 6-28 6-43v-27l-21-23-21-22-11 4-12 4-3 34-3 35 21 27c25 31 35 34 44 11zm709 9c-7-2-19-2-25 0l-13 5h50l-12-5zm201-64c31-12 55-23 54-25-3-2-72 14-153 36l-30 8 37 1 36 1 56-21zm-1195-3 11-13-6-17c-3-9-14-21-24-26l-19-10-15 6c-8 3-18 15-21 25l-7 20 12 14 12 15h46l11-14zm681 5c0-6-4-13-10-16-19-12-10-43 36-130l46-88 5-56 5-56-20-25-20-24-58 44c-32 24-85 55-118 69-34 15-71 32-83 39l-23 13-6 24-6 24 11 34 11 33 43 42c23 23 60 50 82 61l40 20 33 1h32v-9zm207-20 39-20 27-39 26-40 33-10c18-6 72-13 119-17l86-7-5-23-4-24 33-20c19-12 38-22 42-24l9-3-7-26c-4-14-19-40-34-58l-27-32-24-3c-89-11-240-39-265-50-37-15-95-68-95-87l1-13 9 17c6 9 25 27 43 39l32 23-42-43-43-43-10-36c-5-21-10-50-10-67v-29l-15 15-15 14-10 53-9 52 9 51 10 51 19 26c31 44 63 70 116 93l50 22-13 5c-7 2-34-1-60-8l-47-11-26-25-26-25-7 52-7 52 21 21 21 21 62 5 62 5 3 16 3 17-34 36c-39 41-45 42-73 20l-19-15 15 7 15 8-36-44c-20-24-40-45-46-47l-11-4-36 58-36 57v37c0 19 3 39 8 43l7 8 67-5 66-6 39-20zm-728-16c29-14 45-38 34-49-4-3-23-6-43-6h-37l-27 27-27 26 13 9c20 12 56 10 87-7zm1120-47 64-31 72-68 72-69 28-62 29-63 4-87 4-88-22-55-22-55-51-45c-63-58-75-50-14 8 25 25 54 62 65 83l19 39 6 53 6 53-10 57-11 57-23 41c-60 103-148 183-260 236-36 16-65 32-65 35 0 8 43-7 109-39zm-1246-37 44-19 21-27 22-28v-58l-10 6c-5 3-10 13-10 22 0 8-10 29-22 45l-21 30-51 24-51 24h17c9 0 36-9 61-19zm878-27 13-16-24 4-23 3-5 13-4 12h15c8 0 21-7 28-16zm373-10 16-6v-59l-12 8c-7 4-19 8-27 10-7 1-18 6-24 12l-10 10 6 15 6 16h15c8 0 21-3 30-6zm-1274-23 35-18 17-29c9-16 19-45 22-64l6-35-24 51-24 51-23 17c-13 9-40 21-61 26l-36 10-29-11c-15-5-39-20-52-32l-24-22 12 22c6 13 24 29 39 37l27 15 40 1h40l35-19zm-20-66 13-15-18-20c-23-26-41-25-55 1l-11 20 12 15c15 18 43 18 59-1zm364-8 18-13-4-25-3-24h-74l7-7c4-3 16-8 27-11l20-5-22-1-23-1-20 20c-11 11-20 25-20 30 0 17 39 50 58 50 10 0 26-6 36-13zm1055-13 30-25 30-62 31-62 5-70 5-70-13 50c-19 74-59 153-106 213l-41 52h14c8 0 28-12 45-26zm-1470-93c31-16 65-39 76-52l20-24-20 16c-11 9-48 31-81 48l-62 30-21 27c-30 39-26 51 5 14l27-31 56-28zm624 24c18-18 36-68 39-112l3-32-10-1-10-2-13 44c-7 23-18 54-23 67l-9 23-16-13c-8-7-23-27-32-45l-17-33-14 8-13 9 6 18c3 11 19 34 35 52l30 32h15c8 0 21-7 29-15zm-703-20 12-15-12-15c-7-8-21-15-32-15h-19l-5 15-6 15 12 15c16 19 34 19 50 0zm1515-29 18-13-6-16-6-16-26-7-25-6-15 12c-19 16-19 25 1 44 19 20 35 20 59 2zm-1118-39c18-12 33-28 33-34v-13h-14c-7 0-24 8-37 18s-32 21-41 25l-17 6-6-10-6-9 16-56 16-57-10-10-10-10-15 37c-8 20-18 52-22 70l-6 34 12 22 12 22 31-6c17-4 46-16 64-29zm858 23c-16-4-41-8-55-8h-25l30 8c17 4 41 8 55 8h25l-30-8zm105 6c0-12-81-49-143-66l-70-20-23-21c-13-12-29-37-35-56l-11-35 5-61c3-34 11-94 17-134l12-72-7-38-8-38-8 40c-4 22-20 87-34 145l-25 105 7-95c4-52 7-126 7-165v-70l-13-23c-7-13-15-21-19-18-3 4 0 12 6 18 7 7 12 16 12 22v9l-7-6-6-7-47 137c-55 161-90 248-132 321-17 29-28 55-25 58 2 3 24-28 47-68 24-40 57-98 75-128s38-72 44-92c7-21 17-40 22-44l9-5-6 83-6 83 11 43 12 42 29 33 29 34 38 15c21 9 72 24 113 33 41 10 86 23 100 31 28 15 30 16 30 10zm-201-20c-2-2-20-6-39-10l-35-6 15 10c14 9 69 15 59 6zm-1027-36 18-22v-48l-27 11c-32 12-70 45-85 73l-10 19 43-6 44-6 17-21zm522-20c31-10 71-29 88-41l30-22 15-34 14-35-15-23-15-23-46-6-46-7 3-31 3-30 61-19 60-19 53-47c50-45 81-88 81-114 0-6-12 6-26 27-54 81-115 126-187 139l-38 7 3-13 3-14-34 2-34 1-13 14-14 13 19 50 19 49 25 9 26 8 20 34 19 33-15 6c-8 3-29 6-48 6h-33l-13-17-14-16v-102l-27-3-27-3-17 33c-9 18-23 41-32 51l-15 17h-62l-30-25-30-24 13-1c7 0 26-10 42-21l28-22 28 6 28 5 39-39 39-38-4-18-3-18-15-1c-61-3-105-29-142-84-24-35-22-12 2 28l20 33 34 20 35 20-11 30-10 30-64-2-63-2-15 13-16 12v69l19 37c11 20 34 52 53 69l33 32 40 15c22 8 58 15 81 15l41 1 57-20zm-589-25 30-24-35-2-35-2 28-4c35-6 34-14-3-36l-29-18-33 14c-18 8-42 24-52 36l-19 21 7 8c11 11 68 30 91 31l20 1 30-25zm1439-1c11-28 6-51-13-68l-19-17-21 13-21 13v19c0 25 28 56 50 56h18l6-16zm-130-15c33-26 33-42 1-59l-25-13-20 18-20 18v45l13 5c20 9 23 8 51-14zm-1234-50c0-11-5-29-10-40-11-19-59-49-80-49h-10l6 28c8 32 31 61 59 73 31 12 35 11 35-12zm545-34v-20l-19-3-19-4-8 13-8 13 11 14 11 13 16-3 16-3v-20zm899 8c3-10 2-31-2-48l-8-30-22-3-21-3-28 15-28 15 19 1h20l-19 14-19 14 34 21c19 11 43 21 52 21h17l5-17zm-1402-57-4-54 17-32c9-17 14-34 11-37-2-3-14 13-25 36l-21 40v28c0 34 10 73 19 73 3 0 4-24 3-54zm1152 44 26-10v-39l-21-12-22-11-35 5-35 6-26-13c-14-8-35-23-45-35l-19-21-7-38-8-37-1 45-1 45 18 22c18 22 130 103 143 103 4 0 19-4 33-10zm124-12 3-18h-56l15-10 15-10h-36l-5 15c-4 8-3 22 0 31l6 15 27-3 28-3 3-17zm-985-16 17-19-7-6c-10-11-41-8-48 3-8 13 1 40 13 40 5 0 16-8 25-18zm382-41 5-9-80-4-80-3v7c0 9 34 15 97 17l52 1 6-9zm872-23-5-13v50l5-12c2-7 2-19 0-25zm-323 13c3-5 1-22-5-38l-10-30-24-11c-28-13-35-7-35 29v28l22 15c25 18 44 20 52 7zm105-17c12-15 21-35 21-44v-18l-27-5-28-5-17 9-18 10-6 26-7 26 18 14c27 19 41 16 64-13zm-1497-1 18-16v-38l-15-5c-8-4-31-3-51 0l-35 7-6 15-5 15 17 19 18 20h20c11 0 29-7 39-17zm832-22c69-27-8-20-109 10l-30 9 55-4c30-3 68-9 84-15zm-729-11 20-9h-48l-48-1 6 10c7 12 42 12 70 0zm355 2c0-7-125-52-145-52h-9l11 11c9 9 115 47 136 48 4 1 7-3 7-7zm811-31 23-19-12-26-12-26h-19c-25 0-51 26-51 50v19l18 10c23 14 26 14 53-8zm-801 1c0-5-10-14-22-20-13-6-43-23-67-38l-44-27 5 14c2 7 31 28 64 46 67 37 64 36 64 25zm-509-30c-7-2-18 1-23 6l-11 11 24-6 23-7-13-4zm230-8c10-9 19-21 19-27v-10l-62 7c-60 7-88 19-88 36 0 13 31 19 73 15l39-3 19-18zm1307-30c-35-49-102-114-117-114-5 0 25 36 66 80 42 44 78 80 80 80s-11-21-29-46zm-849 20c8-8-19-22-57-29l-35-6-6 8c-3 4-4 7-2 6 2-2 11 7 19 18l15 21 30-6c17-3 33-9 36-12zm109 4c7-7 12-23 12-37v-24l-39-51c-22-28-49-71-59-94l-19-43-6 15c-4 9-12 16-20 16-7 0-32 9-55 20-48 23-56 25-47 8 4-7-12 6-34 29l-41 42v31c0 35-3 34 46 14l38-16 56 4 56 4 37 28c20 15 39 36 42 47 7 22 16 24 33 7zm-612-46 12-7-17-35-17-35-18 3-18 3 6-9 6-10-23-6c-12-3-32-6-44-6h-23v14c0 25 20 71 37 84l17 12h35c20 0 41-4 47-8zm1264-1c0-15-62-48-105-56-44-7-110-38-121-56l-7-12 14 7c8 4 3-1-11-12-14-12-26-19-29-17-5 6-62-24-85-44l-19-16 13 24c21 40 101 121 145 147l41 24 55 9c29 5 66 9 82 10l27 1v-9zm-1180-10c0-18-24-77-38-93-8-10-22-18-30-18h-15l6 41 5 41 18 19 17 19h19c10 0 18-4 18-9zm629-130c12-36 21-77 21-91v-25l-42 2c-24 1-60 2-80 2l-38 1v28c0 44 17 92 52 143l33 48 16-21c9-12 26-51 38-87zm-476-18 5-8h-61l-62-1-49-24-49-25-26-39-25-38-4 11c-2 6 9 27 24 46l27 36 46 24 46 24 62 1h62l4-7zm207-29c0-2-9 0-20 6s-20 13-20 16c0 2 9 0 20-6s20-13 20-16zm-780-4 20-20v-79l-21-11-21-12-24 6-24 6-15 30c-8 16-15 40-15 54v25l18 10c9 6 27 11 40 11h22l20-20zm635-14c44-19 45-28 3-15-18 5-62 9-98 9h-66l-44-22-45-23-30-49-29-48 2-67 1-66-9 15c-5 8-10 32-10 52v37l20 54 20 53 28 27c15 14 43 33 62 41l35 15 63 1h63l34-14zm-767-62 22-25v-48l-16-15c-8-9-24-16-34-16h-18l-31 26-31 26v67l18 10 17 11 25-5 25-6 23-25zm281 10c25-32 26-52 5-82l-15-22h-57l-10 13c-6 6-13 24-17 40l-7 27 16 25 16 25h49l20-26zm356-39v-30h-48l-10 16-10 16 6 17 7 17 27-3 28-3v-30zm197 24c-23-4-48-11-55-14-6-4-3 1 7 9l20 16 35-1 36-1-43-9zm-114-42 3-17h-19c-10 0-22 3-25 7l-7 6 12 14c14 17 32 12 36-10zm217 5c-3-3-11 0-18 7l-12 12 18-7c10-3 15-9 12-12zm-105-17v-15h-50v30h50v-15zm-650-53c36-15 71-31 78-35 17-11 15-42-4-61l-15-16h-88l-51-45c-56-50-58-51-85-31l-20 14 18 84 17 83 21 18 21 17h22c12 0 51-12 86-28zm1328-26 4-29-14-8c-7-5-21-9-30-9h-18l-6 27-7 26 19 14c10 7 25 12 34 11l15-3 3-29zm-1569-2 31-26v-56l-16-6c-9-3-27-6-40-6h-25l-24 25-25 24v50l18 10c28 17 48 13 81-15zm1911-24v-50h50v-30h-51l3-102 3-103 23-3c28-4 28-18 2-32l-21-11-31 3-31 3-5 20c-3 11-7 64-9 118l-4 97h-17c-9 0-34-3-55-6l-38-7 3-101 3-101 28-3c33-4 35-15 4-31l-24-13-29 4-29 3v10c-1 6-7 21-14 34l-13 24 4 83 4 83-28-6-28-5v31l23 3 22 3 3 32 3 32 34 25 34 26 3-52 3-53 35 3c19 2 43 5 53 8l17 5v63l28 23c15 12 30 22 35 23h7v-50zm-471-42-1-73-7 25c-5 14-14 36-22 48l-14 23-35 10-35 11-26-10-26-11-5-24c-3-13-1-33 3-44l7-20 71-37 71-37 17-25 16-25 1-43 1-43-28-36-28-36-48-15-49-14-41 10-41 10-18-13-17-14 20 24 20 24-17-6-18-6 1 57 1 57 12-34 12-34 28-23 27-24h66l20 23 20 22 6 35 5 35-25 30c-14 17-22 24-18 17l7-14-18 10c-11 5-36 17-57 27s-36 20-33 22c2 2 18-3 35-12 48-24 37-9-15 21l-46 27-9 23-8 24 12 37 12 37 35 24 35 24 62-6 62-5 6 9c12 20 15 8 14-62zm911 37 19 17 18-4 18-3v-60l-22-3-23-3v10c0 6-7 11-15 11h-15V871l20-11 21-11-5-8c-7-11-114-23-127-15l-10 6 20 15 21 14v200l-20-6-20-6v9c0 5 21 18 48 29l47 20 3-14 4-15 18 17zm-164-56 24-22v-65l-37-6c-21-3-59-8-85-12l-48-6v-45l21-27 20-26h75l20 15c10 8 25 15 33 15h14l-19-21c-10-12-31-27-46-35l-27-14h-87l-21 15-21 15-17 45-18 45 6 35c7 46 38 88 79 109l33 17 38-5 39-4 24-23zm-1126-49v-50h50v-30h-50V709l15-5 15-6 15 12 15 12v-32l-24-15-25-16-33 4-33 4 39 1 40 2-22 20-22 21v183l-15-14-14-15-5-74c-7-107-16-100-16 13v98l-25-4-25-5v37h50v64l28 23c15 12 30 22 35 23h7v-50zm-463 3 22-14 15-44 14-44-21-43-22-43-45-22-44-23H608l6-16c3-9 6-38 6-65v-49l28-11 27-10-16-9c-18-10-169-25-169-17 0 3 11 17 25 31l25 25v306l-8 11c-4 6-16 14-27 18l-20 8 25 9c33 11 197 25 235 20 17-2 40-10 52-18zm981-111 3-122h14c8 0 15-4 15-9 0-9-14-13-92-26l-36-6-6 9-6 9 20 18 20 18v196l-15-5-15-6v10c0 10 69 41 85 38l10-3 3-121zm-673-7 25-24-1-33-1-33-7 30-6 30-19 3-18 4 4-35 4-35-60-5c-33-3-64-3-69 0l-9 6 6 35 5 36-19-20-20-20-9-44-9-45-1 33-1 33 15 28c8 16 28 40 45 55l32 26h89l24-25zM995 684l19-14h72l22 16c13 9 26 13 29 10 11-10-21-39-66-59l-43-19-34 6c-18 4-35 10-38 14l-5 8 36-4 36-5-31 29-32 29-5 35-5 35 13-34c7-18 21-39 32-47zm1470-34 6-10-14 6-14 5-17-16c-20-21-20-39 0-59 19-19 26-20 42-4l12 12v-11c0-15-29-25-52-17l-19 6-10 25-10 26 16 23 15 24h20c10 0 22-4 25-10zm-610-9c-27-11-254-35-261-28-3 3 18 8 48 11 29 3 85 10 123 15 39 4 79 9 90 9l20 1-20-8zm485-41v-40h51l-6-10c-3-5-17-10-29-10h-23l-7 38c-8 51-8 62 4 62h10v-40zm-775 0-7-12-10 10-10 10 7 12 7 12 10-10 10-10-7-12zm610 20 6-10h-20c-29 0-26-14 5-28l25-12-3-23-3-22-27-3-28-3v19l20-5 20-5v30l-25 6-25 6v48l13 5c20 9 35 8 42-3zm89-30 6-40h41l-6-10c-3-5-15-10-26-10h-20l-4 13c-2 6-6 29-10 50l-6 37h18l7-40zm-169 20c-3-5-13-10-21-10h-14v-30l23-1h22l-23-10-24-9 5-12 4-13 22 2 21 3v-20h-57l-10 50-10 49 11 5c6 2 21 5 34 5l23 1-6-10zm-590-10c-16-4-50-7-75-7h-45l50 7c28 4 61 7 75 7l25 1-30-8zm505-1v-11l-15 6-14 5-15-21-14-20 5-14c3-8 17-21 32-29l26-14-19-1c-11 0-28 7-38 17l-18 16v20c0 11 7 29 17 39l16 18h37v-11zm-643-15c-3-3-12-4-19-1l-13 5 19 1c11 1 17-2 13-5zm543-16c0-13 3-34 6-48l7-25-10 10c-6 6-14 27-17 48l-7 37h21v-22zm-91-24c12-19 21-40 21-47v-11l-9 10c-5 5-18 26-30 47l-21 37h9c5 0 18-16 30-36zm38 14-5-13-1 19c-1 11 2 17 5 13 3-3 4-12 1-19zm-103 4c2-4 1-14-3-21l-8-13-6 21-5 21h8c5 0 11-4 14-8zm-404-42c0-5-7-10-15-10s-15-4-15-10c0-5 7-10 15-10s15-4 15-10c0-5-7-10-16-10h-16l5-12 4-13 17 3 16 3v-21h-60v23c0 12-3 32-6 44l-6 21 19 5c31 8 43 7 43-3zm58-12 25-23-6 23-5 22h18v-80h-10c-5 0-15 9-22 20-18 28-26 25-20-6l5-27-12 7-11 7v40c0 45 5 47 38 17zm-175-5-13-5v-78h-20v24c0 13-3 31-6 40l-6 16-9-6-9-5v20l33 3c34 3 50-2 30-9zm45-39 3-49-9 10c-6 6-13 30-17 54l-7 43 13-4 14-5 3-49zm477 36c10-11 16-20 13-20s-13 9-23 20-16 20-13 20 13-9 23-20zm-600 0 6-10h-41v-10c0-5 6-10 14-10 7 0 19-6 25-14l11-13-6-17-6-16h-58v21l20-6 20-6v7c0 5-12 18-26 29l-26 21 16 17c19 19 42 22 51 7zm-84-52c23-44 19-60-9-35-24 22-38 21-52 0l-10-18 6 30c4 17 11 40 15 53l9 23 10-6c6-4 20-24 31-47zm-100 5 11-28-10-15-9-15-25-3-25-3-7 32c-3 17-6 38-6 45v14h60l11-27zm-130-30-5-48-7 30c-3 17-7 38-8 48l-1 17h25l-4-47zm-65 1 24-6v-33l-8 11c-4 6-17 16-29 23l-23 12 1 17 1 17 5-17 4-18 25-6zm584 2106v-10h19c11 0 23 5 26 10l6 10h-51v-10zm-151-269-29-29v-61l107-55 107-56 18 6 18 5v61l-32 60-31 59-28 20-27 19h-74l-29-29zm-139-835c0-2 8-10 18-17l17-14-14 18c-13 16-21 21-21 13zm240-127c0-5 9-9 20-9s20 2 20 4-9 6-20 9l-20 5v-9zm946-281c-9-12-16-33-16-46v-24l31 6c17 3 40 6 50 6h19v56l-12 12c-7 7-22 12-34 12h-23l-15-22zM614 965c3-11 6-57 6-102v-83h20c11 0 36 7 56 15l35 14 14 35c8 20 15 48 15 64v28l-14 19-14 19-61 6-62 6 5-21zm-64-198V627l-17-20-18-20 25 6c14 4 40 7 59 7h34l-19 21-19 21-3 128-4 128-19 5-19 5V767zm220 96c0-9-11-31-26-50l-25-33h11c15 0 80 64 80 78 0 5-9 12-20 15l-20 5v-15zm955 15c-2-7-5-41-7-75l-4-63h15c9 0 21 4 26 8l10 7-3 68-4 67h-14c-8 0-16-6-19-12zm-739-20c-9-12-16-33-16-45v-23l23 1c12 1 33 4 47 8l24 7 7 24 6 25-10 13-9 12h-57l-15-22zm-66-397c0-6 5-13 10-16l10-6v15c0 9-4 16-10 16-5 0-10-4-10-9zm10-47v-16l12 4c6 2 14 10 16 16l4 12h-32v-16z"/></g><g fill="#22211f" transform="matrix(.1 0 0 -.1 0 300)"><path d="M10 1500V0h2990v3000H10V1500zm1222 1163 18-16v-44l-19-17-18-16 10-40 11-39 18 41 19 41 10-10 11-11-26-50-25-50-65 41c-69 46-73 61-6 27 23-12 43-20 44-18 2 2-1 17-5 34l-9 30-25 14-26 14-5 23-6 24 17 19 18 20h20c11 0 29-7 39-17zm623-69c14-9 25-23 25-30v-14l-22-1-23-1 13-5c6-2 12-11 12-19v-14h-19c-50 0-66 24-28 40l22 10-32-6-33-6v31l22 15c28 20 33 20 63 0zm-127-18 32-16 6-26 7-26-16-15-15-15-11 6c-6 4-11 13-11 21v13l23-5 22-5-31 30-32 30-40 7-40 6-42-11-42-11-43-45c-24-24-46-44-49-44-13 0-5 29 14 53l20 25 53 27 52 27 56-5 56-5 31-16zm-300-17 3-27-25-28-24-29-21 19-21 19v19c0 11 5 28 11 39l10 20 32-3 32-3 3-26zm178-31 7-11-18-14-19-13-9 9-10 10 6 15 6 16h15c8 0 18-5 22-12zm-509-28 12-25-13-20c-7-11-20-21-28-23l-14-3-27 21-27 21v23c0 31 9 37 49 34l36-3 12-25zm-173-62 12-29 19 21c24 27 31 25 44-10l10-31-8-22c-5-12-18-31-30-41l-21-20-12 12-12 12 1 37 1 37-16-27-17-27-20 6-20 6 28-21c15-13 27-29 27-36v-13l-28-7-29-6-24 9c-13 6-32 19-42 30l-19 21 7 10 6 11h37l37 1-20 11c-11 6-23 16-27 22-9 13-11 100-2 108 3 4 28-3 56-15l51-21 11-28zm977 3 57-22 64-49c73-54 118-106 144-165 9-22 32-69 50-105l32-65 12-65 12-64-6-41-6-40 20-33 20-32v-101l-20-38-19-38 24-23 25-23v-47l-25-16-24-16-21 7c-11 3-24 15-30 25l-10 18 15 12 15 12v-32h41l5 15 6 15-12 15c-20 24-34 18-96-39l-58-55-60-31-61-30-65-14-65-14-85-45-85-46-88-20c-48-12-118-24-155-27l-67-6-80 16-80 17-80 37c-172 80-289 206-346 372l-22 65-1 115v115l11 37 11 37-15 43c-8 23-22 54-30 69l-16 28-38 17-38 17-42-6-42-5-20-20-20-20 6-24c4-14 15-36 26-49l19-25 66-32 67-32 19-33c28-46 25-58-6-20l-25 32-67 36-67 35-22 33-23 33v62l31 26 31 26h103l33-20 32-20 20-32 20-33v-35l1-35 27 55c41 83 85 142 148 199l57 50 66 34c36 19 93 43 126 53l60 18 130 1h130l75-19 75-19 85-43c47-23 100-56 119-72l35-29-11-6-10-6-53 36c-29 19-81 49-116 65l-63 29-98 21-98 20-95-5-95-6-70-22-70-21-65-38-65-38-56-58c-66-70-102-130-135-222l-24-67v-201l15-57c8-31 24-76 35-99 68-146 239-279 411-322l65-16h173l51 11 50 11v15c0 25 57 108 100 147 22 19 62 47 89 61l50 25 70 6 71 7v-9c0-4-12-20-26-35l-26-27-89-37-89-38-57-53-58-54 25 9c68 24 124 54 216 114l101 65 61 68c34 37 64 65 67 62 8-8-78-119-130-167l-47-43 24 7c13 4 53 23 90 42l67 35 40 43c21 23 53 52 70 64l31 22 15 54 16 53-7 29c-4 15-11 34-17 41l-10 13-13-31c-21-49-62-97-112-130l-45-30h-56l-15 16-16 15v59l27 6 26 7 16-10c9-5 21-20 27-33l12-22 45 41 45 41 22 52 22 52-4 82-4 81-30 59-29 59-70 70-70 70-57 28c-31 15-69 32-84 37-43 17-19 24 32 10l46-13 56-37c31-20 74-52 95-72 20-19 37-34 37-31 0 15-59 91-105 136l-56 55-62 34-62 33-90 1c-99 1-192 12-200 23l-4 8 132-3 132-2 56-21zm4-59c22-8 49-21 60-29l19-13h-10c-6 0-37 9-69 20s-70 20-85 20h-26l-20 15-19 16 55-7c30-3 73-13 95-22zm-1190-13 6-18-11-21-11-20h-22c-29 0-47 18-47 45v22l22 10c13 5 31 8 40 5l17-4 6-19zm677 9-12-12v-56l45-87 46-88 2-47 1-46-14-26-13-26h-15c-8 0-34 16-58 35l-43 36-78 35c-43 20-86 43-95 51l-18 16v28c0 46 17 78 69 128l49 47 33 11c19 6 52 11 74 12l39 1-12-12zm207-13 32-16 27-39c15-21 38-44 52-51l25-13 95-5 95-6v-60l38-18 37-19v-46l-26-31c-14-17-39-40-55-52l-29-21-105-18-104-19-40-21-40-20-26-34-26-35-11-70-10-69 17-51c9-28 21-54 27-58l11-6-7 18c-4 11-7 57-7 103v84l26 44 26 43 42 25 42 24 90 22 90 21 38 25c56 37 48 6-9-33l-30-22-80-20-79-21-32-34-32-34-7-39-7-38 13-70c7-38 15-102 17-142l5-71-11-19-10-18-1 20c0 12-11 63-24 115-14 52-27 106-29 120l-4 25-2-30c0-16 5-71 13-122l14-92-8-43c-17-89-34-102-44-35-14 87-106 338-173 470-19 38-32 71-30 73 5 6 78-108 111-173 14-29 29-53 31-53 3 0-2 15-11 32l-17 33-5 66-5 67 26 54 25 55 34 26c19 15 49 33 68 41l35 15-31 1h-30l-47-30c-26-16-50-30-52-30-3 0-5 24-5 54v54l32 27 32 27 37-5 38-5 17 13 17 12-29 37-29 36-30-1-30-1 12-5 13-5-43-49c-23-27-45-49-48-49-10 0-67 92-80 129l-11 33 11 25 12 26 73-6 74-5 31-17zm-843-106 42-17 16-23 16-23v-77l-9 5c-4 3-11 19-14 35l-6 28-29 30-30 29-41 14c-22 7-41 17-41 22v8l28-6c15-4 46-15 68-25zm872-27 4-14-23 4-22 3-5 13-4 14 23-4 22-3 5-13zm384-26 11-25-6-15-6-15-33 16c-18 9-36 21-40 27l-7 10 11 13 10 13h48l12-24zm-1308-68 11-18-11-17-11-18h-58l-3 24-4 25 18 13c23 17 43 13 58-9zm1414-22 38-35 29-58 30-57 3-68 4-68-8-27-8-28-6 70-6 70-27 60c-16 32-46 82-67 111-22 28-40 54-40 57 0 16 22 5 58-27zm-1043 0 16-25-10-19c-5-10-17-24-25-32l-16-12-30 12-30 13-6 24-6 24 17 19 18 20h57l15-24zm210-80c9-13 21-48 27-79l12-56-7-7-7-7-13 11-14 12-12 55-12 55h-29l-20-40c-22-43-21-43-44-34l-15 6 6 16c4 9 19 34 36 55l29 37h48l15-24zm-711-18 11-18-17-16-16-16-21 7-21 6v23c0 12 3 26 7 30 12 12 45 2 57-16zm1520-24c20-19 20-23-1-46l-16-18h-22c-25 0-45 18-45 40 0 23 20 40 46 40h23l15-16zm-1151-20c36-19 67-43 67-54 0-5-7-11-16-14l-16-6-30 25-30 25h-40l5-12c2-7 10-37 17-66l14-52-11-11-12-12-16 39c-10 22-19 58-22 81l-6 43 13 15c16 19 43 19 83-1zm-255-31c21-13 42-50 42-74 0-15-31-10-67 12l-33 21-15 28c-8 16-15 32-15 35 0 10 62-5 88-22zm550-35 54-20 33-29 34-30 6-29 6-29-11-20-11-21h-18c-10 0-32-5-50-11l-31-11v-48h13c6 0 37-11 68-24l57-23 44-36 45-37 26-48 26-48 6-45 6-44-27 63-26 62-45 51c-45 50-82 74-134 89l-28 8-5-14-5-14h-31c-17 0-40 5-51 10l-19 11v14c0 9 4 23 9 33 6 9 12 29 16 45l5 27h18c24 1 50 22 61 53l10 26-35 7-35 6-19-17-20-18v-105l-27-5-28-6-10 16c-5 8-19 29-30 47l-21 31-37 3-37 3-26-20-27-21h13c8 0 22-7 32-16l18-17h81l39-40 39-40-9-18c-13-24-21-28-66-34l-39-4-25-29c-14-16-30-37-37-48l-12-19v22l-1 22 32 37c17 20 43 40 57 45l24 10-11 11c-7 7-12 20-12 30v18h-17c-10 0-35-5-56-11l-38-10-18 6-18 5-11 26c-7 14-12 35-12 48v22l28 45c49 76 104 115 187 132 28 6 71-3 133-25zm-593-25 29-26-34-28-34-29h-42l-42 32c-23 18-42 35-42 39 0 11 73 38 105 38h30l30-26zm1430-4c4-11 4-31 1-44l-6-24-20-6-20-6-21 19-21 20 13 24c14 27 28 38 51 38h17l6-21zm-127-5 22-15v-20c0-20-21-49-36-49-4 0-18 10-31 22l-23 21v22c0 39 29 47 68 19zm-1228-43c0-4-5-21-10-38l-11-29-28-17c-16-9-36-17-45-17h-16v15c0 27 21 61 48 78 29 18 62 22 62 8zm540-41v-19l-19-10-19-11-12 15-12 15 6 15 5 15h51v-20zm898-18 3-33-12-15-11-14h-54l-20 15-19 14 14 1h13l-11 14-12 14 28 21 27 22 25-3 26-3 3-33zm-1404-21-6-48 21-48c25-57 26-61 4-44-9 8-25 33-35 56l-19 42 7 28c8 32 22 63 30 63 2 0 2-22-2-49zm1266 34 12-14-4-17c-2-9-10-22-20-27l-16-11-16 13-16 13v46l13 5c22 9 34 7 47-8zm-104-3c6-4 13-17 16-30l6-22-21-12-21-11-44 2-43 1-22-11c-11-7-29-21-39-33l-18-21-6-38-7-39-8 14c-13 20-11 56 6 89l16 29 61 45 62 45h26c14 0 30-4 36-8zm-875-22 19-11v-29h-23c-13 0-28 5-34 11l-11 11 5 14c6 17 18 18 44 4zm389-50v-10h-124l10-8c5-5 35-14 67-21l57-12v-10c0-12-7-11-72 2-29 6-63 13-74 15l-22 4-6 15-6 16 23 9c12 5 50 9 85 9l62 1v-10zm548-27 3-23-26-26-26-25-11 3c-6 2-15 14-19 25l-8 22 21 26 20 26 22-3 21-3 3-22zm-1386-3 13-20h104l6-10 6-10H601l-6-18c-3-11-15-24-28-29l-22-10-23 8-22 9-9 22c-9 24-5 44 12 66l9 12h68l12-20zm452-30c-12-12-121-50-143-50h-15l11 11c14 14 111 48 138 49h19l-10-10zm807-20 19-11v-48l-16-15c-21-21-33-20-61 6-27 26-28 35-6 60 18 20 36 23 64 8zm-791-4c0-8-132-87-137-82-10 9 9 27 60 56 47 27 77 37 77 26zm-307-27c23-13 37-28 37-43v-8l-60 4-61 4-17 18-17 17 15 9c21 13 77 12 103-1zm477-19 15-10-20-16c-11-8-29-17-40-20l-21-5-29 11-29 11 30 19 29 20h25c14 0 32-5 40-10zm119-12 8-23-9-24c-5-14-25-46-44-73-20-27-44-70-54-96l-19-47-13 3c-7 2-39 19-70 38l-57 35-31 37-30 37v65h9c5 0 25-7 44-15 45-19 98-19 141-1l33 14 29 36c16 20 35 36 42 36h13l8-22zm-609-38c0-6-7-26-15-45l-14-35-26-10c-15-6-44-10-67-10h-40l6 16c3 9 6 21 6 28 0 8 9 25 21 40l20 26h109v-10zm67-37c-4-19-13-46-22-59l-15-24h-39l-6 19-6 20 20 40 21 39 17 4c10 3 22 2 27 0l8-5-5-34zm603-20c22-48 60-166 60-186v-19l-80 3-79 4-10 10-10 10 10 50 9 50 35 52c19 29 39 53 43 53 5 0 15-12 22-27zm-437-100 12-8-82-5-82-6-43-29-43-30-20-42c-11-23-23-42-27-43-16 0-7 38 18 76l25 39 42 24c23 14 56 28 72 32 33 9 110 4 128-8zm-580-30c8-10 19-30 22-46l7-27-16-25-16-25h-57l-16 18c-8 9-21 30-27 46l-11 29 16 23 15 24h67l16-17zm645-19 37-16-12-5c-6-2-29 0-50 6s-60 11-88 11h-50l-40-19c-49-22-79-54-100-105l-17-39 4-48 3-48-10-1-10-1-9 40-9 40 23 56 23 56 31 31c16 17 44 37 61 44l30 13 73 1h73l37-16zm-789-50 31-26v-64l-12-12-12-12h-55l-25 23-25 22-6 27-7 26 21 21 21 21h38l31-26zm291 6 20-20v-56l-16-22-15-22h-18c-10 0-30 9-45 21l-26 20v68l16 15 15 16h49l20-20zm354-19 18-20-4-18-3-18-30-3-29-4-12 17-13 17 6 16c13 36 42 41 67 13zm267-8c27-16 49-31 49-35 0-13-16-9-42 11-40 32-102 32-136 1-24-23-30-14-9 13 10 15 52 33 81 36 4 1 30-11 57-26zm-177-28c8-22-3-43-26-51l-20-6-11 11-10 10 11 26 12 25h38l6-15zm107-11 13-16-10-16c-15-23-29-25-48-7l-16 16 10 20c13 23 33 25 51 3zm-645-60c82-35 89-39 92-56l3-15-18-21-18-22-50-7-50-6-42-38-43-39h-50l-9 23-9 23 17 71 16 71 19 21 19 21h65l58-26zm1322-6c29-29 7-78-35-78h-23l-12 25-11 25 18 20c20 23 45 26 63 8zm342-44v-55l28 3 27 3v-40l-28-3-28-3 3-97 3-97 28 3 27 3v-10c0-29-62-58-98-46l-20 6-11 31-11 31v170l-42-7c-22-4-45-9-50-12l-8-5v-72c0-40 3-83 7-95l6-24 28 6 29 5v-9c0-4-12-18-26-29l-27-21h-56l-15 22-16 22v196h-50v40h50v60l32 29 33 29 8-5 9-5-7-49-7-49h20c11 0 34 3 51 6l31 7v52l32 32c18 18 36 32 41 32l7 1v-56zm-1914 31c12-8 27-29 34-46l14-32-24-19-24-19-25 6c-29 7-58 30-73 58l-9 18 16 25 15 24h56l20-15zm1454-65c0-32-3-65-6-74l-6-16-9 6c-5 3-9 14-9 25v21l-29 29-29 29h-55l-19-17-18-16v-44l18-15c9-8 46-30 81-49l64-33 13-33c18-42 18-87-1-123l-15-29-43-26-44-25h-36c-20 0-47 4-61 9l-24 10-12-14-12-15-9 6-9 5v124l9 14 8 13 14-43 14-44 38-18 37-19 28 9 27 9 14 28 13 28-9 31-9 32-53 26c-30 15-65 39-80 53l-26 26v99l29 30c15 16 42 35 58 42l31 12 41-11 41-11 14 14c8 8 18 12 23 9l8-5v-59zm960 30 11-21-6-18c-3-11-12-22-20-25-18-7-45 3-45 16v9l-10-6-10-6v-79c0-43 3-85 6-94l6-16h40l-4-12c-5-14-43-25-101-30l-42-3-3 18-3 17h31v200h-42l4 11c2 6 26 20 53 30l50 19 3-10 4-10 21 15c29 20 44 19 57-5zm-241-45 28-14 12-30c7-16 11-38 9-48l-3-18-84-12c-45-6-85-14-88-17s0-19 7-36c22-54 71-65 129-29 18 11 36 17 39 14 12-11-15-39-59-63l-44-24-43 5-43 5-24 22-23 22-11 44-12 45 11 37 10 38 27 26c40 36 63 47 101 48h33l28-15zM1292 944l30 6-6-16c-3-9-6-20-6-25v-9h-50V712l13-5c8-3 20-1 28 4 20 13 29 11 29-6v-15l-32-20c-18-11-43-20-55-20h-22l-15 22-16 22v196h-61l3 17 3 17 25 6 25 6 3 29 3 30 32 27 32 27 3-56 3-55 31 6zm-505 56 32-19 17-32 16-32-5-33c-3-18-13-44-23-59l-17-26-40-20-40-21-53-5-54-6V630l25-6 26-6-4-11c-5-15-47-25-119-29l-61-3-4 11-4 11 26 11 25 12v337l-26 12-27 12 7 7c9 9 154 29 221 31l50 1 32-20zm993-110V771l21-6 20-7-4-11-4-12-62-8-62-9-17 7-17 6 25 21 25 20v163l-19 16-19 16 7 12c4 6 15 11 24 11 9 1 28 7 42 14 14 8 28 12 32 10l8-5V890zm-695 4 33-15 12-29c6-16 10-36 8-46l-3-18-35-8c-19-4-56-10-82-13l-48-6v-49l20-20 20-20h65l30 20c36 24 45 25 45 6v-15l-36-27-35-27-52-5-52-4-28 22-28 22-15 36-15 37 6 39 6 38 25 33c26 34 76 64 107 65 11 0 34-7 52-16zm960-235c-49-9-437-58-505-64-19-2-109-10-199-19s-165-15-168-13c-5 6 180 34 272 42 39 4 77 9 85 12s42 7 75 9 134 12 225 23c91 10 188 18 215 19h50l-50-9zm425-13v-13l-22 1-23 1v-60h28l27 1-3-11c-2-5-14-11-26-13l-23-4-19 18-19 17v22c0 37 37 69 68 57 6-2 12-10 12-16zm-124-41 6-45h38v-20h-59l-5 18c-5 16-9 69-7 85 1 4 5 7 10 7h10l7-45zm-76-11 5-39 23-3c12-2 22-8 22-13v-9h-67l-7 31c-3 17-6 43-6 56v25l13-4 12-5 5-39zm-90 22v-14l-22 5-23 4 20-15c52-40 54-45 29-71l-17-17-18 5c-10 3-35 1-56-4l-38-8-6 7c-4 4-10 31-14 60l-7 52h72v-20h-40v-20h40v-10c0-6-7-13-15-16-8-4-15-10-15-15v-9h50v21l19-11 20-10 6 10 6 10-26 10c-14 5-28 17-31 25l-6 15 12 15 12 15h48v-14zm-163-23 4-12-27 2-28 2-4-18-4-18 13-15 13-16 23 5 23 4v-7c0-4-6-13-14-19l-14-11-26 10-26 10-12 24-11 25 17 26 17 26 26-3 26-3 4-12zm-102-30c4-21 9-46 12-55l4-18h-28l-10 50c-6 27-8 52-5 55 13 13 22 2 27-32zm-98-5 17-33 9 33c6 17 14 32 20 32h9l-6-16c-3-9-9-33-12-55-4-21-10-39-14-39-12 0-70 97-63 104 13 12 23 5 40-26zm-62-15v-32l13-12c16-17 15-29-3-29h-15l-12 20c-7 11-16 20-19 20-4 0-5-9-2-20l5-20h-30l-7 46-7 47 14 8c7 5 24 8 38 7l25-3v-32zm-95 17v-10h-40v-10c0-6 10-14 22-19l21-8-16-6c-10-4-17-11-17-17v-10h50v-20h-68l-11 44c-6 25-11 47-11 50 0 5 27 13 53 15l17 1v-10zm-93-17 4-11-20 5-21 5v-10c0-5 11-13 25-16l26-7 6-14 5-15-12-15-12-15h-46l-6 15-5 15h9c5 0 12-4 15-10 9-15 25-12 25 4v14l-24 6-24 6-6 17-7 17 18 14c20 14 45 12 50-5zm-122-49c3-25 4-48 1-52-3-3-17 5-31 18l-25 23v-50l-41-7c-23-4-44-5-46-2-3 2-5 26-6 53l-2 48 44 3 43 3 19-17 19-17v43h18l7-46zm-163-16 5-43-9-10-9-10-9 15c-5 8-10 28-10 43v29l-12-5-13-4v-76l-12-4-13-5-6 40-6 40-35-1-34-1 26-13 25-14v-38l-17-9c-10-5-35-10-55-10l-38-1v9c0 17-32 11-46-7l-13-18-1 19c0 10 5 36 12 57l11 39h27l17-35 17-35 10 3c6 3 19 0 29-5l17-9v9c0 5-11 14-25 20l-25 12v14c0 30 30 38 151 44l37 2 4-42zm-308-32 9-39-17-13-17-12h-48c-26-1-54-2-61-4l-14-3-7 45c-8 55-5 60 32 60h29v-10c0-5-7-10-15-10s-15-4-15-10c0-5 7-10 15-10s15-4 15-10c0-5-7-10-15-10h-15v-27l26 5 25 5-1 36c-1 20-2 40-1 44l1 8 32-3 32-3 10-39zm-174 14v-10h-22l-23-1 28-15 27-15v-12c0-7-5-18-12-25l-12-12h-56v32l15-12 16-13 11 11 11 11-26 10-27 11v18c0 25 9 32 42 32h28v-10zm575 2070 6-9 14 6c21 7 19 13-6 13h-20l6-10zm-161-274-34-34v-39l18-15c9-8 46-29 82-47 36-17 77-39 92-48l26-17 17 14 17 14-7 35c-9 47-47 113-86 145l-31 26h-60l-34-34zm1049-1238c-6-7-13-23-16-35l-5-23h89l5 14 6 14-12 21-11 21h-47l-9-12zM633 973l-13-5v-87c0-48 2-90 6-93 3-3 22-2 42 3l37 8 23 26 22 26v89l-20 20-20 20-32-1c-18 0-39-3-45-6zm352-133c-9-17-14-34-11-39l5-8 38 6 38 6v60l-27 3-27 3-16-31zm725-295c0-8 5-15 10-15 6 0 10 7 10 15s-4 15-10 15c-5 0-10-7-10-15zm-390-45v-10h40v-10c0-5-7-10-15-10s-15-4-15-10v-10h40v14c0 8-3 21-6 30l-6 16h-38v-10zm-390-85c0-8 5-15 10-15 6 0 10 7 10 15s-4 15-10 15c-5 0-10-7-10-15z"/></g></g></svg>