<svg xmlns="http://www.w3.org/2000/svg" baseProfile="tiny-ps" version="1.2" viewBox="0 0 186 186"><path fill="#f6edc2" d="m0 93 1 93h185V0H0v93z"/><path fill="#d0be8f" d="m0 93 1 93h185V0H0v93zm77-70-3 2h-2v-2l1-2v-1l2 1 2 1v1zm38 4h-4l1-1v-1l1 1 2 1zm-27 0h-2l-2-1h2l2 1zm-21 4-2 1c-2 0-3-1-1-2l3 1zm-12 3 2 2v1l-2-1-3-2v1l-1 1v-4h1l3 2zm40 0-9 1-9 1 2-1 16-1zm-34 3c-1 2-2 1-1-1v-1l1 1h1l-1 1zm38-1h-2l-1-1h5l-2 1zm-29 3-9 6-4 3 4-4c4-3 10-7 12-7l-3 2zm-26 0v1l-1 1c-2 0-3 0-2-2h3zm41 1v3l3 6 3 7v2l-1 3h-1l-4-2-2-2 2 1 2 1 2-1 1-2-1-4-5-6-2-3h-5l-2 2-3 2c0-2 9-9 13-9h1l-1 2zm15 1 3 3 3 2 3 2h10l-1 1v2l3 2 2 1-1 1-1 1-3-2-3-1h-11l-10 1v-1l1-2h4l5-1v-3l-2-2-3-2-3 1-4 1h-1c-2-1-3-4-3-6l1-1h4l7 3zm-48-1-1 1-2 1v-1l2-1h1zm72 9v1h-3v-1l1-1 1 1zm-69 2-2 3 2-4c2-2 2-1 0 1zm23 3 4 2c0 2-9-3-10-4-2-3-1-3 0-1l2 2 4 1zm-35 0-1 1-2-1 2-1 1 1zm23 1c0 1-2 2-3 1h-2l1-1 2-1h2v1zm66 1 1 2-2-2-2-2 2 2zm-80 2v-2l1-1-1 3zm28 5 1 4-1-3-2-4h-1l-2 2-2 1c0-1 3-4 5-4h1l1 4zm-45-2-2 1h-1v-1l2-1 1 1zm94 2v1h-4l1-1 2-1 1 1zm-69 2c3 2 2 3-2 1l-3-1h-1v-1c0-2 2-1 6 1zm-17 1 1 2h-1l-1 1-2-2-2-2h4l1 1zm34 2c4 2 7 5 7 7v2l-3 1-4 1v6l-1-1h-2l1-2 1-3c2-1 4-3 4-5l1-2h-8l-1 5v4h-2v-7l-2-1-2-1-4 1-4 1 1-2 5-3 3-2h3l7 1zm-38 1v1h-2l-3 1v1l-2-1-1-1 2-1h6zm89 1v2l-1-1-2-1 2-1h1v1zm-7 1-2 1-2-1v-1h4v1zm-44 4-1 1h-1l1-1 1-1v1zm48 1-1 1-2-1 2-1 1 1zm-8 1v2h-5l1-2 3-1h2l-1 1zm-67 2-1 1v-1l1-2v2zm15-1v1h-1l-1-1v-1l1 1zm37 5-1 1v-5l1 2v2zm-66 0v1h-2c-2 0-3-1-2-2s3-1 4 1zm33 0 1 2h-1l-2-1-2-2-3-1h6l1 2zm46 3v1h-4v-1l2-1 1 1zm-68 2v1h-2l-3-1-1-1h6v1zm36 2v3l-1 1-2 1-2-1h-2l3-3c3-4 4-4 4-1zm-41 1-2 1-1 1v-1l3-1zm74 2-6 2c-4 2-4 2 0-1l3-2h6l-3 1zm-28 6 2 5-4-3-3-3 1-2c2-3 3-3 4 3zm-64 4 1 2v2h-6v-2c0-3 2-4 5-2zm-9 4 1 2-1 1h-3l-2 1v-2c0-3 2-4 5-2zm18 0 1 2-2 1c-3 0-4 0-4-3h5zm22 2h-2l-1-1h1l2 1zm-28 6 4 2h-6l-6 1v1l-1 1v-4l2-1c2-2 2-2 7 0zm-15 1 1 2h-3c-3-1-4-1-2-2h4zm97 0-1 2-1-2c1-2 2-1 2 0zm21 10v9l1 1 2 1h-2l-2-1-1-6v-7h-3l2-1 2-2-1-1h-1l1-2 2-1v10zm-11 2 1 10h-1c-1 0-2-2-2-10v-10c2-2 2-1 2 10zm-18-9v1l-1-1-1-1h1l1 1zm55 9 1 5h-3v-7l1-7 1-1v10zm5-9-1 1-1-1-1-1h1l2 1zm-71 2v3l5 3 6 3v2c1 3 1 3-2 1l-6-4-4-3v-2l-1-2 1-2c2-2 2-1 1 1zm58 1 1 3v1h-3v-3c-1-2 0-3 2-1zm-10 5v5l3 2c3 2 2 3-1 1s-4-3-4-6l2-7v5zm-61-1v3h-2v-2l2-4v3zm-40 2-2-1-1-1 1-1 2-1v4zm12-2c2 1 3 4 2 4l-3-3-2-3h1l2 2zm60 1v2l-1-1-1-1v-1c1-3 2-2 2 1z"/><path fill="#a79265" d="m0 93 1 93h185V0H0v93zm75-72h2v4h-2l-1 1-2-1-1-2 1-1c1-2 1-2 3-1zm28 5h-4l-1-1h7l-2 1zm12 0v1h-5l1-1 2-1 2 1zm-27 1v1h-4v-2h4v1zm9-1-2 1-1 1 1-1 2-1zm-5 4-2 1 3-3-1 2zm-25 0c2 2 1 3-1 3h-3v-4h1l3 1zm-13 2 3 2v3l-2-1h-2v1l1 1h-1c-1 0-3-2-3-5 0-2 0-3 4-1zm45 3c6 1 16 6 18 9l2 1-4-2-9-5-6-2-8-1h-7l-7 1c-8 2-14 6-19 12l-4 4-2 4-3 10-1 5 1 6 1 6 3 5 2 4 5 5c5 5 11 8 18 10l6 2h-6l-8-3-7-4-5-5-6-6-2-6-2-6V64l1-5c3-6 7-12 13-17l4-3 7-3 7-2h6l12 1zm-37 2v2l-1 1c-3 0-3 0-2-3v-2h3v2zm-18 3v1h-2c-2 0-3-1-2-2s3-1 4 1zm41 0v2l3 6 3 6v3l-1 4-1 1-6-3-9-5-3-2v-4l2-3 2-4 4-1 5-2h2l-1 2zm11-1 3 1 4 4 4 3 6 1h6v1c-1 0 0 2 2 3l2 2v1l-4 4-4 2h-6l-7-1-4 2-4 1 3-3 3-3h2l3-1v-1h-5l-6 1-1-1v-1l2-2 2-2h7v-1l-5-6-3 3-2 2-2-1-3-3-2-3 1-2v-1h2l6 1zm-42 2 1 1h-2l-2 1-2-2-1-1h2l4 1zm72 5-2-1-2-2 2 1 2 2zm-1 4v1h-2c-2 0-3-1-2-2s3-1 4 1zm-78 2 1 1-1-1-2-2 2 2zm90 4-2-2-2-3 2 3 2 2zm-93-2v1h-4v-1l1-1 2 1zm89 4c3 5 2 4-2-1l-3-4 2 1 3 4zm-66-2v1h-6v-3h5l1 2zm13 6 1 4v2l-2-4c-1-5-3-5-4-1l-2 2c-1 0-1-1 1-3l1-3h4l1 3zm-45-1-1 1-2-1 2-1 1 1zm95 2-4 2-1-1 1-1 2-1h2v1zm-70 2 2 2h-1l-1 1-1-2-5-1 1 4 1 3-1-1-1-3-1-3 1-1c0-2 3-1 6 1zm-18 1h2v2l-1 2-5-4h4zm36 2 4 3 2 2v5l-3 1-3 1-1 1v2l3 1 3 1H73l1-2 3-5 3-3v-1l-1-2h-5l-1 1v8h-3l-1-3-3-3-2-1-3 1-3 2c-2 1-1-3 1-5l3-3 4-1 4-2 2 1 6 2zm-39 2 2 1h-3l-2-1v1l1 1 2 1h-6l-1-1c-2-2-1-4 4-4h2l1 2zm83 2c0 1-2 2-4 1l-1-1v-1l1-2 2 1 2 2zm7-2v2l-1 1-2-1-2-1 1-1h4zm-27 11 1 9-1-5c-2-5-2-11-1-12s1-1 1 8zm-25-5v1l-1-1-1-1 1-1 1 2zm56 0c0 3-1 3-3 2l-2-2 2-1c2-2 3-1 3 1zm-7 0v1h-4v-1l1-1 3 1zm-7 1v2h-7l-3 2-2 2 1-1c0-2 6-6 9-6h2v1zm-54 1-1 1-1-1-1-1h1l2 1zm0 2h1l3 2 2 3-2 1-4 2 1-1 1-1v-2l-1-2h-2l-7-3v-1l4 1 3 2 1-1zm34 5-1 2V77l1 3v5zm-62-2v1l-2 1-3-1-1-1 1-1v-1h5v2zm59 2 1 4-4-8 3 4zm19 1v2h-4v-3h4v1zm-68 1 2 2h-8v-1l-1-1h7zm16-1-2 2-2 1 1-1 3-2zm12 3h-2l-1-1h1l2 1zm8 1v3l-2 2-3 2h-4l-7-3-1-1 4 1h4l3-1 4-4 1-1h1v2zm-42 3c-3 2-4 2-3-1l1-1h4l-2 2zm77 0-8 4c-5 3-6 2-2-2 5-3 7-4 12-4h4l-6 2zm-69-1-1 1-1 1v-1l1-1h1zm39 5 2 5v3h-1l-4-3-3-2 2-3c1-4 2-4 4 0zm-64 6 1 4v2h-1l-2 1-2-2c-2-2-2-4-1-5h5zm-8 5c2 3 1 4-2 5h-2l-1-2-2-2 1-2v-1h5l1 2zm18 1v3h-4l-1-1-1-2v-1l1-2h5v3zm21-1-2 1h-1l1-1 1-1 1 1zm45 0-5 1h-3l3-1 5-1h2l-2 1zm-10 2h-4l-1-1h7l-2 1zm-29 1h-2l-1-1h1l2 1zm6 0-1 1-1-1 1-1 1 1zm-39 4 5 2v3l-2 1a304 304 0 0 0-11 2l-3 1v-4c2-7 4-8 11-5zm-16 2c3 2 2 2-1 3H8l-1-1v-4h2l3 2zm97-1-1 2h-2v-3h2l1 1zm23 5h3l-3 1-2 1v12l2 1h1l-1 1-2 1-2-1-1-1v-13h-4l2-1h2v-2l1-4 2-1v6h2zm-30-3c0 3-1 3-3 1l-1-2h4v1zm19 5 1 1h-3v11l2 2 1 2h-1l-3-2-2-1v-6l1-12 2-1v5l2 1zm41-3-1 1-2-1h-2v7l1 7h-4v-16h6v-1l1 1 1 1v1zm-71 0-1 2 2 2 6 4 4 3v7h-1l-2-3-1-3-5-3-4-3-1-2v-3l1-2 2-1h1l-1 2zm56 2 2 3v2h-4l1-2v-2l-1-1-2-2h1l3 2zm-8 2-1 2 1 1h1l-1 1-1 1 1 3 2 3h2l4 1h-8l-2-3-2-2v-5l2-2c3-4 3-4 2 0zm-60 4h3l-2 1-6 1h-3l1-1h2v-5h1l2-1v5h2zm-41-1v3l-2-1-2-1-1-2v-2h5v3zm12-2 1 4 1 2h-4v-2l-2-3-1-2h2l3 1zm60 2v3h-3v-4h-2l2-1c3-1 3-1 3 2zm-42 5 2 1-3-1c-3-1-4-2-2-2l3 2zm20 8 1 3-1-2-2-3c0-2 1-1 2 2zm-21 6h-2l-1-1h1l2 1zm20 9v1l-1-1-1-1h1l1 1zm-15 4-2-1-2-2 2 1 2 2zm6-115-3 2-2 1v5l7 3 7 4 1-1h1v-2c0-3-3-9-5-11s-4-2-6-1zm36 13-1 1h3v-1h-2z"/><path fill="#7c6742" d="m0 93 1 93h185V0H0v93zm77-71v2l-1 1-1 1-2-1h-2v-2c0-2 1-3 3-3h3v2zm11 5v1h-4l1 1v1l2-1h1l-1 1-1 2-2-1c-1-2-1-4 1-5s3-1 3 1zm19 0 3 2-3-1-2-2h-8l-4 4-4 3 1-2 4-4 4-2h7l2 2zm9-1v1h-6l1-1 2-1 3 1zm-38 5c-1 2-2 3-3 1l-1-1 1 1h2l1-2 1-2-1 3zm36-2-1 1-1-1-1-1h1l2 1zm-47 1 1 1v1c-1 2-3 2-5 0l-1-1 1-1h4zm33 0-2 1-1-1 2-1h1v1zm-46 2 3 2v4h-2l-1-1 1 1v1h-1l-3-1-1-1v-3c0-4 0-4 4-2zm8 5c0 3-2 5-3 5l-1-3v-3l1-1c2-1 3 0 3 2zm38-2c7 2 20 8 19 10l-2-1-8-4-6-3-7-1-6-1-7 1h-6l-7 4-7 3-3 4-7 9-3 5 1 21 2 4c4 9 14 17 24 21l5 1h13l5-1c6-2 11-4 15-7l4-2c0 1-10 7-16 9l-11 3h-6l-7-1c-7-2-13-6-19-11-5-5-8-9-11-17l-1-5v-7l1-7 2-5 3-6 4-4c5-6 10-9 17-11l5-2h16l4 1zm20 1c5 2 9 6 12 10l2 3-5-5-4-5-6-2-4-3 5 2zm-3 2 2 1h-2l-4-1-2-1h2l4 1zm-73 1v2l-2 1h-1l-1-1-1-1v-1l3-1h2v1zm41 1v2l3 6 3 6v7l-1 1h-2l-3-2-8-5-5-3-1-2v-3l2-2c3-4 8-7 11-7h2l-1 2zm12-1 4 1 2 3 3 4h5c6 0 8 1 8 3l2 3 3 1-1 2-1 3-3 1-9 2-6 1-5 2-4 2-1 3-1 3v-9l2-3 2-2 4-2c2 0 3-1 3-2l-9 2-1 1v-2l-1-2 2-2 1-2h4c4 0 4-1 2-4l-1-2h-4l-1 3c-3 3-4 3-7-1-2-4-3-6-1-7h9zm-42 2 1 2h-2l-2 1-2-1-2-2v-1h2l5 1zm73 6 7 4 2 6 3 5v3c0 3 0 2-2-4l-1-4-4-4-4-5-5-3-5-3h3l6 5zm-79 1 2 3v1l-3-3c-2-3-1-4 1-1zm-2 3 2 4v1l-2-2-1-3-3-1-3-1h-2l-2 1 1-1v-1h4l4 1 2 2zm78-2c1 3 0 3-3 2l-2-1 1-1 2-1h1l1 1zm-82 6-1 1h-1l-2-1 1-2 1-1 2 1 1 1-1 1zm24 1-2 2h-1l-2-1-2-1 1-1 2-2 2 1 2 2zm66 2 3 3 1 4v4l-2-5-5-8-2-3h1c1 0 3 2 4 5zm-52 6 1 4h-1l-2-4-1-5-2 3-3 3c-2 0-1-2 2-5l2-2 2 1 2 5zm-46-3-1 2h-2v-3h2l1 1zm6 0 2 1h-1l-3-1-1-1h1l2 1zm89 2v2h-5v-3h5v2zm-70 2 3 2-1 1h-1l-2-1-3-2h-1v4l1 5-1-2-2-5v-4h5l2 2zm-16 2 1 2h-1l-1 1-5-5v-1l3 1h2l1 2zm35 2 4 2 1 2 1 3-1 1-3 2-3 1-1 1v2l4 1 5 3 1 1-3-2-3-1h-3l-4 1v-7l3-1 2-3 1-1-1-1h-5l-1 1v7h-4v-1l-2-3-1-2h-2l-4 1-2 1 2 1 4 2h2l3 2c3 3 3 4-2 5l-4 2-1 3-2 2v-1l4-4 3-4-1-1-1-2h-4l-4-1-1-3v-3l3-3 3-3 3-2 4-1 3 1 7 2zm25 2-2 4 1 8 1 9v1l-1-1-2-8-2-7 1 10v9l-2-1-2-2-1-4-5-12-3-8 2 3 2 3 4 7 3 6v-4l-1-4 1-4 1-4 3-2 4-3-2 4zm-64-2 1 2-2 1-3 2-3-2-3-2 2-1 4-1h3l1 1zm89 2v2h-1l-2 1-1-2-1-1 1-2c2-2 3-1 4 2zm11 2-1 1v-7l1 2v4zm-19-3 1 2-1 1-1 1h-1l-2-1v-4h1l3 1zm-77 3-1 2-1 2-2-1h-1l2-2c1-2 3-3 3-1zm34 2-2 2h-1v-3h3v1zm56 0v1l-1 2-1 2-1-1-2-2-1-1 1-1h5zm-15 2v2l-5 1h-4l-2 3-2 2v-3l5-4 4-3h4v2zm6-1 1 1h-2l-2 1v-2h3zm14 0-7 8 3-4 4-4zm-93 4 1 3-1-1h-1v-3c0-3 1-3 1 1zm19-2-1 1-2-1 2-1 1 1zm-28 5v2h-6v-4h1c2-1 5 1 5 2zm84 1-1 1-1-1-1-1 2-2 2-1v3l-1 1zm8-2c1 3 1 3-1 3h-3v-1l-1-2 1-1c2-2 3-1 4 1zm-45 1h-2l-1-1h5l-2 1zm-22 1-4 2h-1l3-2h2zm54 2v1l-1 2-2 1-1-1-2-2v-1h6zm-69 1 1 2h-3l-4-1h-1l1-1 2-1h3l1 1zm14 1-3 2 2-2c3-3 4-3 1 0zm15 1-2 1-2-1-1-1h5v1zm7 0c1 1 0 5-4 9l-2 3-7-3-6-3v-3h2l5 2h3l3-2 3-3h3zm56 0c-2 0-3 2-4 3l-10 7 3-3 7-5 2-3h4l-2 1zm-94 3c0 1-7 5-8 4l1-3 1-2h6v1zm5 1-3 4-1 1v-2c0-3 2-5 3-5h1v2zm73-1-4 1-9 5c-7 4-8 4-5 0l2-3 4-2 5-2h7v1zm19 1-1 1-1 1v-1l1-1h1zm-53 7 2 6v1l-2-1-5-1-3-2v-1l2-5 2-3h1l3 6zm-38 2-5 4-3 2 1-2c2-2 6-5 8-5h2l-3 1zm-26 3v3l-1 1-1 1-2-1h-2l-1-3v-2l1-1v-1h6v3zm38-1h1-10l-4 2-4 3 3-3 3-3h6l5 1zm-47 3 1 4v2l-1 1h-2l-2-1c-2-1-3-4-2-6h6zm18 2v2l-1 1-1 2-2-1-2-1v-6h6v3zm22 0v1h-2c-2 0-3-1-2-2s3-1 4 1zm5 3-2-1h-1l1-1v-1l1 1 1 2zm7-1v1h-1l-2-1 1-1 2 1zm-39 4 4 2v3l-4 1-4 1-3 3-3 2h-1l-2-1 1-4 2-7 1-2h2l7 2zm81 1v1l-1 1-1 1-1-1-2-1 1-2c2-1 3-1 4 1zm-97 0 1 2v3l-3 1H9l-1-2-2-2v-2l1-1h5l1 1zm118 2v3h4l-2 1-2 2v12h2l2 1-3 1h-3l-1-1-1-1v-13h-4l2-1 2-1v-2c0-2 2-4 3-4h1v3zm-29 1v3l-2-2-3-2h-5l-1 3v3l5 3 6 3v2l1 3-1 3c-2 3-5 5-9 5h-3l-2-2-2-1v-5l1 3c1 2 4 4 7 4h2l1-2 2-2v1-3l-1-3-5-3-5-3v-2l-1-2 2-3c2-3 4-4 9-4h4v3zm20 3h1v2h-3v13h3l-1 1-2 1h-3v-2l-1-7v-5h-1l-2-1 2-1h1v-4l2-2 2-1v7l2-1zm40-3v2h-2l-3-1v12l1 1 1 1h-2l-5 1h-2l2-1 1-2v-7l-1-6 2-1h3l1 1v-1c1-2 3-1 4 1zm-15 2 2 3 1 2-3 1h-3l1-1 1-2-1-2-2-2-2 2-1 1-1 2v2h5l-3 1h-2v2c0 2 3 5 5 5l3-1 3-1-2 1-5 3h-3l-2-2-3-3v-7l3-3 2-2h3l4 1zm-69 4v3h4l-4 2-3 2-1-1-2-1h-1l1-1 2-1v-2c0-2 2-4 3-4h1v3zm-30-1 3 1 1 3v2l-1 2v2l-1-1-1-1-3 3-4 4h-3l3-1 3-2 1-2 2-3-1-3-1-3h-8v22l-1-8v-8l-3-3-3-3 4-1h13zm62 4v4l-2-1-2-1v-4h-2l2-1 3-1h1v4zm-41 4 2 2-4-2-4-1-3 2-3 2 2-2 3-3h5l2 2zm-2 5-3 1h-2l2-1c3-2 4-2 3 0zm14 6-1 1-1-1-1-1h4l-1 1zm-13 1c4-2 4 0 0 1l-3 2-3-2c-3-2-3-2 1-1l2 1 3-1zm84 1-2 1-1 1 1-1 2-1zm-55 3-1 1h-1l1-1 1-1v1zm5 0h-2l-1-1h5l-2 1zm43 1-1 1v-1l1-2v2zm-10 2h-1l-2-1v-1l2 1 1 1zm-53 4v3l-1-1-1-2 1-1 2-1-1 2zm7 2v1l-2-1-2-3v-1l2 1 2 3zm-10 0v2l-1-2-1-2h-1v5h-1l-1-4-1-2h6v3zm-12 4-2-2v-2l-1 1-1 1v-1l1-2v-1l2 3 1 3zm4-5 1 2v1l-2 2h-1l1-1c2 0 1-2 0-2h-2v-2h3zm-11 2 1 2h-1l-1-2c0-1-2-2-2 0l-1 1v-3h3l1 2zM75 46l-2 2v2l1 1 6 4c6 3 8 4 9 1v-1l-2-4c-2-5-4-7-8-7h-2l-2 2z"/><path fill="#4b4130" d="m0 93 1 93h185V0H0v93zm77-72 1 2-1 2-2 2-2-1-2-1v-2l1-2c1-2 4-1 5 0zm38 4 1 2-1 1v2h-4v-2l-1-1 1-2 2-1 2 1zm-27 1 1 1-1 3-1 2h-2l-2-1v-3l1-2h4zm19 0c3 2 3 3 2 5l-1 1h-1v-1l1-1 1-1-3-1-5-2c-3 0-9 3-10 6l-1 2h3l9 2 6 1h7l3 1 2 2h-1l-6-2h-3l4 2 4 3v-1l1-1 4 2 7 5 4 3-1-2-5-6-4-4-5-2-4-2h-11l2-1c3-1 6-1 12 1l5 1 6 7 6 6v1l-1 1 3 4 2 3 1 5 1 6-1 4-1 5-4 3-3 4-3 1h-2l-1-1-2-3v-1l2-1h1l2 2 2 2 2-2 4-5 2-4v-4c0-6-2-11-5-16-3-3-13-10-15-10h-1l1 2v1l-3-2-8-5-6-2-6-1-7-1-7 1-7 1-5 2-9 6-4 4-3 6-3 7-1 7v7l1 5 2 6 3 5c5 6 12 12 22 15l4 1h13l3-1 3-1v-2l3-5 3-4 4-2 4-2h8l-2 2-4 2c-2 0-15 9-14 10l12-5 5-3 6-5 5-6-3 5-5 5c-3 3-2 3 2 2l15-12 1-2-1 3v2h1l2 1v2l-1 2h-4l-1-1v-1l2 1h2v-1l-1-3h-1l-4 3c-5 5-11 8-15 8l-10 4-7 4-6 1-6 1h-6l-7-1-6-3-7-3-6-5-5-5-3-6-3-6V61l3-5 3-6 5-5 4-4 7-3 6-3 6-1 6-1 2-2 4-4 3-2h4l6 1zm-28 4c-2 3-3 4-6 1l-3-2h1l3 1 2 1 1-2c3-3 3-2 2 1zm-11 2v2l-1 1-3-1-2-2v-1l1-2h5v3zm32-2-2 1-1-1 2-1h1l-1 1zm-45 3 2 1v2l-1 3-2 1-1-1 1 2c3 2 3 3-1 3h-3l-1-1c-2-2-1-3 1-3h2l-1-1-1-1v-7h1l4 2zm7 4v3l-1 1-2 1-1-1c-1 0-1-2 1-5l1-2h1l1 3zm-17 3v1l-2 1-2 1-1-1-1-1v-2l1-1h2l3 2zm41 0-1 1 3 6 3 6v8l-1 1-1 1-3-2-9-6-6-2v-7l4-3c4-4 5-5 9-5h2v2zm12-1 6 5 3 3h12v4l3 1c3 2 3 3 0 6l-2 3-5 1-8 2h-4l-3 3-3 3-2 5-1 5 2 4c1 4 2 4 1 0v-7l1-4 2-2 3-3 8-2 9-2-12 4h-2l-1 2-2 3v15l1 8-2-5-2-8-1-4 1 6c1 8 0 14-1 16l-1 2v-3c0-3-5-17-9-25s-3-9 1-2l4 6-1-2-1-6v-4l2-4 2-3 4-2c4-3 3-4-2-1-4 2-5 2-5-2v-2l2-1 1-2h7v-1c0-2-3-5-4-5l-4 3-3 3-3-4-2-5v-1l1-2h8l2 1zm-50 8 3 2v4l-2-2c0-2-2-4-4-4l-2-2h1l4 2zm52 0h-2v-1h1l1 1zm-55 2 3 2 1 2v4l-1 1v-4l-3-2-4-3h-2l-3 1-3 2 2-2 2-2h3l5 1zm80 0v3l-5-3v-1h4l1 1zm-81 6-2 2h-1l-1-1-1-1 1-1 1-2 2 1 1 2zm21-1h2v4l-2 1-2 1-1-1c-2-1-2-3-1-5h4zm68 3 3 3 1 5c1 7 1 7-1 1l-2-5-3-3-3-4c0-2 2-1 5 3zm-91 4 3 2-6-2c-2-2-3-1-3 1v1h-2l-2-1v-1l2-1h2l-2-3-1-2 3 2c1 2 4 4 6 4zm37-2 1 1 1 4 1 3-1 1-1 1-1-4c-1-4-2-5-4-2-1 2-3 3-3 1l5-6 2 1zm-17 7c1 2-1 2-3 0l-3-1h-1v1l1 3 1 4-1 1h-1l-1-3-1-5v-3h1c2-1 7 1 8 3zm68-2v1l-4 1-1-2v-2h5v2zm-86 2 1 2v1l-1 2-2-1-4-4-2-2h3l5 3zm34 3 4 1 2 3 1 2-1 2-1 2h5v2h-8l4 1 5 2h-4l-4-1-2-2-1-1v3l5 1 4 2 4 4 3 6v1l-2-3c-2-4-6-7-9-8l-3-1-1 1-2 1-2-1h-2v-3l1-3 2-2 4-4v-1h-3l-4 1v7h-4l-1-2v-2l-3-1-2-1-3 1-2 1 2 2 2 1h1l-1-1v-2l1-1 2 1 1 1-1 1-2 1h2l4 2 2 2v2l-1 1-3 1-3 1-2 3-2 2v-1l3-4 4-3-1-2v-1l-3 1-5 2-3 1v-1l4-1c2 0 3-1 3-2l1-1-3 1h-3l-1-2-1-2 1-3c1-3 5-7 8-9l3-1h4l7 3zm-38 1 1 1-2 2c-2 1-4 1-7-1l-3-2 2-1 5-1h3l1 2zm89 1v2l-2 1h-2l-1-1v-2l1-1 2-2 2 1v2zm-8 0 2 2-2 1-1 1-2-2-2-2v-1l1-1h2l2 2zm-77 3c0 2-4 5-5 5l-1-1c0-2 4-6 6-6h1l-1 2zm34 1-3 2-1-1 1-1h3zm56 2v3h-5l-1-2-1-1 1-1 1-2h5v3zm-87 4 1 5-2-2v-8c1-1 1-1 1 5zm72-5 1 1v1l-1 2h-3l-5 1h-2l-2 3-1 3v-3l1-2 4-4c4-3 6-4 8-2zm7 1v1h-4l-1-1 1-1v-1h2l2 2zm-90 5 1 2v1l-1 2h-4l-1-2-1-2 1-2 1-1h2l2 2zm86-1c1 1-2 5-3 5h-1v-5h4zm-79 3h-4l-1-1h7l-2 1zm22 2-8 4 7-5h1v1zm51 1v2l-1 1h-2l-2-1-1-2 1-1v-1h2l3 1v1zm-69 0 2 2v1h-4c-5-1-5-1-4-3h6zm27 1c4 1 1 4-3 2h-2l2-2h3zm10 2v1l-4 6-4 7v1l-3-2c-2 0-4-2-6-4l-3-3v-4l2 1h10l3-2c3-3 4-4 5-1zm-39 1h1l-1 3-2 3h-7l1-2 2-3 3-2 1 1h2zm5 2-2 4-1 2h-1c-1-1-1-5 1-6 2-2 3-2 3 0zm39 7 2 6v1h-3l-5-1h-2v-5l2-4 2-4 2 1 2 6zm-30 1 1 1-2-1h-2l-5 2-4 1-2 3-2 2h-1l2-3 5-4 4-2h6v1zm-34 3 1 2v2l-1 2h-2c-3 0-5-2-5-4 0-3 1-4 4-4h2l1 2zm40 0v1h-3l-4-1-4 1h-3l-3 3-3 3v-1l3-4 3-3h13l1 1zm-48 5 1 2-1 1-1 2h-2c-2 0-5-3-5-5v-2l2-1 1-1 2 1 3 3zm17-2 1 3-1 2c-1 3-3 3-5 0l-2-2 1-2 1-3h3l2 2zm22 2v2h-2c-2 0-3-1-3-3l1-1h2l1 1 1 1zm14-2-2 1-3 1 1-1 4-1zm-9 3-1 2-2 1v-4h3v1zm7 1c1 2-1 2-2 2l-2-1v-1h4zm-23 6v4h-1v-7c1-3 1-2 1 3zm-16-2 4 2v3l-2 1-4 1h-3l-2 3-2 2h-2l-1-1v-4l1-7 1-2h3l7 2zm81 1v2l-2 1h-1l-1-1-1-1v-1l1-2h2l2 1v1zm23 5 1 1-1 1h-2v6l1 7 1-1h1v1l-1 2h-6v-2l-1-7v-5h-6v13h4l-1 1-4 2h-2l-1-3-1-3v-4l1-5h-4v-1l1-1h2v-2c0-2 3-5 4-5h1v6h6v-4l2-2 2-2 1 4v3h2zm-120-4 2 2-1 2v1H9l-1-2c-3-2-2-5 2-5h2l1 2zm89 4v5l-2-4-1-3-3-1h-2l-1 1-2 3v2l5 3 5 2 1 2 1 4v2l-3 3-3 3H86v-9l1 3 1 3 3 1 2 1 2-1h2l1-3c1-3 0-4-4-7l-4-2-2-2-1-3v-2l1-3 3-1 2-2h9v5zm60-2v2h-5v11l2 1h1l-2 1-4 1h-3l1-1 1-1v-12h-1l-1-1c0-1 4-3 8-3h3v2zm-13 4 1 3v1l-6 1h-5v4l2 1 2 2 4-1 3-2v1l-2 2-3 2h-7l-2-3-1-2v-7l2-3 3-2h4l3 1 2 2zm-69 5 1-1v3h-3v12h2l2-1v3l-2 1h-4l-2-1h4l-1-1-1-6-1-4v10l-1-6v-6h-2l-1-1-1-1h2l2-1v-2l2-3 1-2 1 4v3h2zm-30-3 2 2v7l-2 2-3 2-4 1h-5v7l2 1 2 1-1 1-6 1h-5l1-1 2-2v-21h-3l1-1c1-1 5-2 12-2h5l2 2zm62 14h1l-2 1-5 1h-3l1-2 2-2v-10l-1-1h-1l3-2 3-1v15l2 1zm-44-8 3 4v2h-3l1-1v-1h-1l-1-1v4h-6l-1 2v1l1 2 1 1h3l4-1 2-1v1l-2 2-2 2h-8l-1-1v-1h1l2 1-2-3-1-3 1-1v-1h-1l-1 1v2l1 1h-1c-2 0-2-4 0-8 2-3 8-5 11-3zm53 15h-2l-1-1h1l2 1zm31 0-2 2v2l1 1h2l2-1-2 1-1 1h-1l-3-2v-2l1-1 3-2h1l-1 1zm-5 5h2l-2 1c-2 1-3 0-3-3v-3l1 2v3h2zm-46-3-8 1h-3l3-1 8-1h5l-5 1zm29 0-1 1h-1l1 1h1l-1 2-1 1h4l-2 1c-2 2-3 1-3-2l-1-3 1-1h3zm4 0c-1 0-1 2 1 2h1v4h-4l1-1 2-1-2-1-2-2v-1l3-1h2l-2 1zm7 2v2h1l2 1h-4l-1-3v-3l1 1 1 2zm-16-1v1l-1-1h-2v1c-1 1 0 4 1 4l2 1h-2l-2-2-1-2 1-1c1-2 4-3 4-1zm-36 1h-2l-1-1h1l2 1zm30 4v2l-1-2-1-4v-1l1 1 1 4zm-10-1 1 3v2l-1-2-2-1v-2l1-1-1-1h-1v6l-1-3-1-2 1-1c2-1 4 0 4 2zm4 0c2 3 1 4-1 0l-1-3 2 3zm-12 3v2l-1-2-1-4v-1l1 2 1 3zm-14-2v1l1-1 1-1v2c1 3 0 4-2 2l-1-1v3h-1l-4 1h-3v-2l-1-2-1-1v5h-1l-1-1-1-3v-2h6v3l1-2 1-2h5l1 1zm11 1h-2l-2-1v-1l2 1 2 1zm-31 4 2 1h3l-2-1-2-3v-1h5l-2 1-1 1h2v4h-5l-5-1 1-3 1-3 2 2 1 3zm-14-1-1 1h3l-2 1h-1l1 1v1h-2v-5h1c2-1 2-1 1 1zm7 0c1 3 0 4-2 4h-2v-6h4v2zm-12 0-1 1 2 1 2 1-1 1h-1l-2-2-2-1 1-1 2-1h2l-2 1zM85 29v1l1-1 1-1h-1l-1 1zM75 46l-2 2v2l1 1 6 4 7 3 1-1 1-1-2-4-3-6-2-2h-5l-2 2zm65 78c-1 3-1 3 2 2h3v-4h-5v2zm-102 7 1 6h5l1-2 2-2v-6l-2-1-4-1h-3v6zm-3 8v10l1-1 1-1-1-8v-8l-1 9zm13-4-1 1 1-1 1-1-1 1zm59 0v4h2l-1-3-1-4v4zm-45-2-2 3v1h1l3-1h2v-4h-1l-2-1-1 2zm20 22 1 1h1l-1 1-1 1h3v-4h-1l-2 1zm-24 5-1 1h1l1-1v-1l-1 1z"/><path fill="#1e1d1d" d="m0 93 1 93h185V0H0v93zm78-71v1l-1 2-1 4v1l1-1 2-2h1v1l-1 3-1 3 6-1h5l1-3 1-2 5-2 4-2 5 1 4 2 1-2 1-1h2l3 1 1 2h-1l-1 1v1l1 1-2 1h-1l-2-2-1-1v4h-4v-1l1-1h1l-1-2-1-1H96l-3 3-2 2v1h23l5 2 9 5 4 4 4 9 4 8 1 7v7h1v10l-1 3 1 2 2 2-1 1-1 2h-5v-1l-1-2 1-1h1l1 1 1 1v-1l1-1-1-1h-2l-4 4c-5 4-11 7-15 7l-6 3c-6 3-12 5-20 6l-6 1-5-1-11-3-5-2h-5l-4-1-3 1-4 1-2 3-2 2-1 5v4l-1 1h-1v-9l2-3 2-3 4-2 3-2h-1l-5 2-3 2-1 3-1 3-1-2v-2l2-2 4-4 3-2h9l1 2 2 1-4-5-6-5-2-4-3-9-1-4v3l1 5 1 2h-2l-2-3-1-4 1-3 2-5v-2l-2-3-5-4c-4-2-7-5-7-8l-1-2 2-2 2-2h8l3 3 3 3v4l1-2 1-1-1-1-2-3-1-3-4-1-3-2c0-2 3-1 7 1l3 2 1 3v2l3-4c5-6 13-12 20-14l2-1-4-2c-5-3-5-4-1-3 3 1 3 1 0-3-2-3-3-3-1-5l2-2 2 1 3 2zm11 6v2l-1 1-2 1h-1l-2-1v-2c0-3 1-4 4-4h2v3zm11 2v1h-3v-3h1l2 2zm-32 0 1 2v1l-1 2h-2c-2 0-4-2-4-4v-2h5l1 1zm-11 4 2 2 1-1c1-2 2-1 2 1l1 2-2 3c-1 2-3 3-4 0v-2l-1 1h-1l1 1 1 2v1l-3 1h-3l-2-3-2-2 2-1h2l-1-2-1-1 1-3v-3l3 1 4 3zm-13 4 1 2-1 1v2h-2l-2-1-1-1v-2l1-1h4zm-8 23v2l-1 1h-2l-1-1-1-1 1-2c2-1 3-1 4 1zm7 5 2 2v4l-1 4-2 2-3 1h-1v-2l2-3 2-3-3 2-2 2h-2l-3-3-2-2v-1l5-2h3l-1-2v-1h5l1 2zm-6 15v2h8v1l-1 1h-7v1l-2 1-2 1-1-1c-3-2-2-7 2-7h2l1 1zm11 6c2 2 1 3-1 3h-2v1l1 1 3-1c2 0 2 0 1 4l-1 3h-2l-1 1-1-1v-1l-5 1h-4v-4l3-3 2-2-1-1h-1l1-1v-1h7l1 1zm-24 16 2 1v5l-1 1-2 1-2-1-3-1v-2l-1-3 2-2c2-1 3-1 5 1zm-8 4 2 2v4l-2 1-2 1-2-1-3-3-1-2 1-2 1-2h4l2 2zm18 1 1 2-1 2-2 2h-2l-1-1-2-1v-2c0-3 2-5 4-5h2l1 3zm22 0v3l-1 1h-2l-1-1-1-1v-2l1-1c2-1 4 0 4 1zm16 0 3 2h-2l-1-1h-7l1 1h2v2l-2 2h-1l-1-2v-2l-1 1h-1l1-1 5-4 4 2zm-11 3v2h-1l-2 1-1-1v-3l1-1h3v2zm-33 3 5 3 1 1-1 2-1 2h-7l-2 2-2 3h-5v-7l1-5 2-1c3-2 3-2 9 0zm-15 2 2 2v2l-2 2-2 1-2-1-3-2v-5h1c3-1 4-1 6 1zm97-1 1 2-1 2-2 1h-1l-2-1v-2c0-2 1-3 3-3h2v1zm21 2v4l1-1h2l1 1v1l-1 1h-3v12h4v1c0 1-3 3-6 3h-2v-2l-1-7v-6h-1l-3 1h-2v6l1 6 1-1h2v1l-5 4-2-2-2-1v-12h-3v-3h3v-5l2-1 3-2v7h3l3-1v-2c0-2 3-5 4-5h1v3zm-29 5c0 3-2 4-2 1l-1-3-1-1h-6v2c-1 2-1 3 3 5l6 3 2 2v8l-3 2-3 3h-5l-4-1-1 1v1l-1-1-1-5v-3l1-1h1l1 3 2 2 3 1h3l1-2c1-3 0-5-4-7s-6-5-6-9v-2l3-3 2-2h4l4 1 1-1v-1l1 2v5zm60-3v2h-5v11h3v1l-1 1-3 1-4 1-1-1-1-1-3 2-2 2h-6l-2-2-2-1-1-5v-4l2-3 5-3 2-1 3 1 3 1 1 3c1 3 0 4-6 5-5 0-5 0-4 3l1 2h6l1-1v-1l2 1h2v-12h-1l-1-1c0-1 5-3 9-3h3v2zm-84 5v3h4v3h-3l-1 2v6l1 3h4v1c0 1-4 4-6 4h-2l-1-2-1-2v-11h-3v-3h3v-4l2-1c3-2 4-2 3 1zm-27 2 2 2v5l-3 3-3 3-4 1h-4v7h2c1 0 2 2 0 3l-6 1h-5v-1l2-2 1-1v-20l-1-1-2-1c0-1 4-2 12-2h7l2 3zm60 4v8h1l1 1v1l-5 1-3 1-1-1-1-1 1-1h1v-12h-1c-4 0 2-4 6-4h1v7zm-42 1 2 3v4h-2l-6 1h-3v2l2 2 2 1 3-1c5-2 6-1 3 2l-2 2-4 1h-3l-2-1-2-1-1-3-1-3 1-3 1-4 3-2c4-3 5-3 8 0zm61 14-18 2a2648 2648 0 0 1 15-3h3v1zm23 1-2 1h-1v2l1 1h3v2l-7 1h-7l-2-4v-3h3v3l1 2 1 1h1v-3l-1-3h3v5h3l-1-2v-2l2-2c1-1 3-1 3 1zm-17 4v4h-3l-8 1-2 1-2-1-1-1v-3l1-3h4v2h-3v2l1 1h3v-6h10v3zm-22 1v-2h2v3l-2 4c0 1-4-4-4-6v-1l2 1 2 2v-1zm5 1c1 4 1 4-1 3h-1v-6h1l1 3zm-10 0 1 4 1 1h-8l-3 1v-2l-2 1-2 2-1-1-1-1v-1l2 1h2l-3-1c-2-1-3-4-1-5h3l1 1-1 1-1 1h1l2 1v-4h3l5-1h2v2zm-37 0h-2l-1-1h1l2 1zm18 4v3H78l-1-2-1-3v7h-1l-1-2v-2l-2-1h-1l1 1 1 2v1l-4 1-2 1-2-1-1-1-1 1-1 1v-2c0-5 3-7 5-3l1 3-1-3v-2h2l11-1h8v-2l1 1h1v3zm-30 2 1 3v1h-6l-7 1-1 1-1-1-1-1v-1l2 1h2l-2-1-2-2v-2l6-1c8-1 8-1 9 2zm45-122 6 1h5l4 1 4 2-2 1-1 1h2l6 4 3 2c0-1-8-9-13-11l-4-2h-12l2 1zm-27 1c-6 1-12 5-17 10l-5 4-3 6-2 6v15l1 6 2 5 4 5 10 8c5 3 9 4 4 1l-5-4-3-2v-6l2 1 6 1h4l3-3 3-3h1l1 3v3l-3 4-3 5-1 3-1 1h1l2 1h2l-1-2v-3l2-5 3-4h1c2 1 5 9 5 12s0 3 5 2l4-1v-1c0-2 6-9 10-12l3-2h5l5-1v1l1 1-3 2-8 4-8 5-2 2 4-2c7-2 13-7 18-12l5-5h-6v-5l1-1 2-3v-1l2-2 3-1h1l1 3v3l-2 1-1 1h-1l-1-1 1 1c0 3 1 2 4 0l2-3v-4c0-6-2-11-5-16s-4-5-2-5h2l3 4 4 9 1 5-1-5c-1-8-7-17-15-21-5-2-5-2-4 0 0 2 0 1-5-2l-9-4-5-2-10-1H80l-3 1zm18 1 4 1 3 3 3 4h2l9 1h7l1 3v2h-2l-3-1 2 1c2 2 2 4 0 7v2l-2 2-1 2-6 2-6 1-2 3-2 2v4l1 9c1 6 1 10-1 10h-1v-3l-1-5-1-3 1 7v6l-1 2-2 3v-3a148 148 0 0 0-13-34v-1l3 5 4 5v-8l1-3 1-3 4-3c4-2 4-3 0-1l-3 2-1 1h-1v-8l1-1 1-1h7l1-1v-1l-2-2-2-2-3 3-4 4-2-3-3-6-1-4v5l3 5 3 8v3l-1 2-2 2-4-2-8-5-6-4-1-1v-2c1-4 5-8 9-10l3-2h5l9 1zm4 9c2 2 0 2-1 2l-2-1 1-1h3zm-33 8 1 2-1 1-2 2h-1l-3-2-1-2 1-1 3-2h2l1 2zm13 4 1 2 1 4v5l1 2 2 1v3l-1 3h5v2h-7l3 1h3l1 2v1l-2-1-4-1h-2l2 1 6 4 3 2 2 5 2 7v2l-2-3c0-3-2-6-3-8l-2-3-3-2-4-2-4 1h-3l1 1 1 1-1 1-2 1h-2l-2-1v-2l-3 1h-2l-3 3-2 2v-1l2-4 3-2-4 2-4 2v-1l2-3 2-1h-3l-3 1 1-1 2-2-2-2-1-2v-2l1-3-1-1-2-4-1-4 1-2c1-3 3-3 7 0l4 3 4-1 4-1c0-2 0-3 2-5s4-3 6-1zm50 3 1 2-1 1-2 1-3-1-1-1 1-2 3-1 2 1zm-8 9 1 1 1-2 1-2h4v2l-1 4-1 1-2-1-2-1-1 1-2 1-1-1-3-2v-2l1-1 1-1 2 1 2 2zm4 4v2l-1 2-1 1-2-1-1-2v-1l1-2h3l1 1zm-6 3v2h2v4l-1 2h-3l-1-2v-1l1-1 1-2h-4l-4 1-1 1-3 4-1 3v-1l-1-2v-3l1-2 4-3 5-3h5v3zm-5 7 1 1v3h-5l-1-1v-2l1-1 2-1 2 1zM76 46l-3 3 1 1 13 8 1-3v-2l-2-4c-4-5-7-6-10-3zm39 18h2l-2-1h-1l1 1zm-10 1-4 2-3 2-2 3v4l-1 4 1 3 1 2V75l2-3c2-3 4-5 10-7l5-1h-3l-6 1zm-30-2c-1 4-1 4 2 4l2 1v-1l-2-6-2 2zm-20 3 1 4 2 2 2-2 2-2-4-1-3-2v1zm23 8 1 2v-2l-1-1h-1l1 1zm-5 3v2l2-1h1l-1-1-1-1-1-1v2zm-13 0-1 1h1l2 1v-3l-2 1zm5 1v2h2l2 1-1-2-2-2-1-1v2zm6 4-2 1h1l2 1 1-1c1-2 0-2-2-1zm1 4-1 2 2-1h1l-1-1h-1zm42-46v1h7l-3-1-4-1h-1l1 1zM36 51l-2 2v2l1 1 3 2 7 6 3 3v-3l1-3-1-4-1-4-2-1-2-2h-3l-4 1zm8 3v2l-1 1h-4v-2c0-2 1-3 3-3h2v2zm95 24-5 5c-2 1-3 3-2 3l-5 6-5 6c2 0 8-4 13-8l5-5 1-3v-5l-1-3-1 4zm-97-7 1 1v-1l-1-1h-1l1 1zm98 53-1 2h6v-2l-1-2h-3l-1 2zm-101 7v6h1l4-2 2-1v-4l-1-3-3-1h-3v5zm23 2-1 2v1h2l2-1 1-3h-2l-2 1zm67 17 2 1-2 1-1 1h6l-2-2-3-2h-2l2 1zm-27 3 2 1-2 1-1 1h4l-1-2v-2h-4l2 1zm-48 5-1 1h2l-1 1-2 1h2c2 0 2-1 1-3l-1-1v1z"/></svg>